<?xml version="1.0" encoding="UTF-8" standalone="no"?>
<!-- Created with Inkscape (http://www.inkscape.org/) -->

<svg
   xmlns:dc="http://purl.org/dc/elements/1.1/"
   xmlns:cc="http://creativecommons.org/ns#"
   xmlns:rdf="http://www.w3.org/1999/02/22-rdf-syntax-ns#"
   xmlns:svg="http://www.w3.org/2000/svg"
   xmlns="http://www.w3.org/2000/svg"
   xmlns:xlink="http://www.w3.org/1999/xlink"
   xmlns:sodipodi="http://sodipodi.sourceforge.net/DTD/sodipodi-0.dtd"
   xmlns:inkscape="http://www.inkscape.org/namespaces/inkscape"
   sodipodi:docname="LED MATRIX solderable thin cardboard with DIP pinholes.svg"
   inkscape:version="0.48.4 r9939"
   version="1.1"
   id="svg9616"
   height="297mm"
   width="210mm">
  <sodipodi:namedview
     inkscape:document-units="mm"
     id="base"
     pagecolor="#ffffff"
     bordercolor="#666666"
     borderopacity="1.0"
     inkscape:pageopacity="0.0"
     inkscape:pageshadow="2"
     inkscape:zoom="2.8988233"
     inkscape:cx="50.039026"
     inkscape:cy="954.50069"
     inkscape:current-layer="layer1"
     showgrid="false"
     inkscape:window-width="1366"
     inkscape:window-height="705"
     inkscape:window-x="-8"
     inkscape:window-y="-8"
     inkscape:window-maximized="1"
     showguides="false"
     inkscape:guide-bbox="true" />
  <defs
     id="defs3" />
  <metadata
     id="metadata4">
    <rdf:RDF>
      <cc:Work
         rdf:about="">
        <dc:format>image/svg+xml</dc:format>
        <dc:type
           rdf:resource="http://purl.org/dc/dcmitype/StillImage" />
        <dc:title />
      </cc:Work>
    </rdf:RDF>
  </metadata>
  <g
     id="layer1"
     inkscape:groupmode="layer"
     inkscape:label="Layer 1">
    <use
       height="1052.3622"
       width="744.09448"
       id="use6873"
       transform="matrix(0.64278761,-0.76604444,-0.76604444,-0.64278761,189.82587,258.7925)"
       xlink:href="#g5972"
       inkscape:tiled-clone-of="#g5972"
       y="0"
       x="0" />
    <use
       height="1052.3622"
       width="744.09448"
       id="use6873-8"
       transform="matrix(0.64278761,-0.76604444,-0.76604444,-0.64278761,189.82587,258.7925)"
       xlink:href="#g5972"
       inkscape:tiled-clone-of="#g5972"
       y="0"
       x="0" />
    <use
       height="1052.3622"
       width="744.09448"
       id="use6873-0"
       transform="matrix(0.64278761,-0.76604444,-0.76604444,-0.64278761,189.82587,258.7925)"
       xlink:href="#g5972"
       inkscape:tiled-clone-of="#g5972"
       y="0"
       x="0" />
    <g
       transform="matrix(-0.96592583,-0.25881905,-0.25881905,0.96592583,217.09645,11.976891)"
       inkscape:tile-y0="33.024781"
       inkscape:tile-x0="59.419311"
       inkscape:tile-h="18"
       inkscape:tile-w="18"
       inkscape:tile-cy="42.024781"
       inkscape:tile-cx="68.419311"
       id="g13168">
      <path
         sodipodi:type="arc"
         style="fill:none;stroke:#ff0000;stroke-width:1.005;stroke-linecap:butt;stroke-linejoin:miter;stroke-miterlimit:4;stroke-opacity:1;stroke-dasharray:none"
         id="path9871"
         sodipodi:cx="25.892778"
         sodipodi:cy="18.76478"
         sodipodi:rx="1.5852721"
         sodipodi:ry="1.5852721"
         d="m 27.47805,18.76478 c 0,0.875522 -0.70975,1.585272 -1.585272,1.585272 -0.875521,0 -1.585272,-0.70975 -1.585272,-1.585272 0,-0.875522 0.709751,-1.585272 1.585272,-1.585272 0.875522,0 1.585272,0.70975 1.585272,1.585272 z"
         transform="matrix(0.27273019,0.32502718,-0.32502718,0.27273019,64.009433,31.383747)" />
      <path
         transform="matrix(0.27273019,0.32502718,-0.32502718,0.27273019,70.903833,25.598659)"
         d="m 27.47805,18.76478 c 0,0.875522 -0.70975,1.585272 -1.585272,1.585272 -0.875521,0 -1.585272,-0.70975 -1.585272,-1.585272 0,-0.875522 0.709751,-1.585272 1.585272,-1.585272 0.875522,0 1.585272,0.70975 1.585272,1.585272 z"
         sodipodi:ry="1.5852721"
         sodipodi:rx="1.5852721"
         sodipodi:cy="18.76478"
         sodipodi:cx="25.892778"
         id="path9873"
         style="fill:none;stroke:#ff0000;stroke-width:1.005;stroke-linecap:butt;stroke-linejoin:miter;stroke-miterlimit:4;stroke-opacity:1;stroke-dasharray:none"
         sodipodi:type="arc" />
      <path
         style="fill:none;stroke:#0000ff;stroke-width:1.01439726;stroke-linecap:butt;stroke-linejoin:miter;stroke-miterlimit:4;stroke-opacity:1;stroke-dasharray:none"
         d="m 69.010766,35.11879 c -3.814829,-0.333754 -7.150858,2.494352 -7.484611,6.309182 -0.333756,3.81483 2.460496,7.179265 6.275325,7.513021 3.814831,0.333753 7.181991,-2.491628 7.515744,-6.306458 0.03601,-0.411566 0.04757,-0.82447 0.01283,-1.222284 L 70.216708,35.318405 C 69.830972,35.215113 69.42233,35.154798 69.010765,35.11879 z"
         id="path9879"
         inkscape:connector-curvature="0" />
      <path
         sodipodi:type="arc"
         style="fill:none;stroke:#ffffff;stroke-width:0;stroke-linecap:butt;stroke-linejoin:miter;stroke-miterlimit:4;stroke-opacity:1;stroke-dasharray:none"
         id="path10437"
         sodipodi:cx="67.581268"
         sodipodi:cy="42.86282"
         sodipodi:rx="8.1756859"
         sodipodi:ry="8.1756859"
         d="m 75.756954,42.86282 c 0,4.515306 -3.660379,8.175686 -8.175686,8.175686 -4.515306,0 -8.175686,-3.66038 -8.175686,-8.175686 0,-4.515307 3.66038,-8.175686 8.175686,-8.175686 4.515307,0 8.175686,3.660379 8.175686,8.175686 z"
         transform="matrix(1.1008251,0,0,1.1008251,-5.9758451,-5.1596865)" />
    </g>
    <use
       id="use13176"
       transform="matrix(-1,0,0,-1,280.26332,87.72298)"
       xlink:href="#g13168"
       inkscape:tiled-clone-of="#g13168"
       y="0"
       x="0"
       width="744.09448"
       height="1052.3622" />
    <use
       id="use13178"
       transform="translate(0,36.000001)"
       xlink:href="#g13168"
       inkscape:tiled-clone-of="#g13168"
       y="0"
       x="0"
       width="744.09448"
       height="1052.3622" />
    <use
       id="use13180"
       transform="matrix(-1,0,0,-1,280.26332,123.72298)"
       xlink:href="#g13168"
       inkscape:tiled-clone-of="#g13168"
       y="0"
       x="0"
       width="744.09448"
       height="1052.3622" />
    <use
       id="use13182"
       transform="translate(0,72.000002)"
       xlink:href="#g13168"
       inkscape:tiled-clone-of="#g13168"
       y="0"
       x="0"
       width="744.09448"
       height="1052.3622" />
    <use
       id="use13184"
       transform="matrix(-1,0,0,-1,280.26332,159.72298)"
       xlink:href="#g13168"
       inkscape:tiled-clone-of="#g13168"
       y="0"
       x="0"
       width="744.09448"
       height="1052.3622" />
    <use
       id="use13186"
       transform="translate(0,108)"
       xlink:href="#g13168"
       inkscape:tiled-clone-of="#g13168"
       y="0"
       x="0"
       width="744.09448"
       height="1052.3622" />
    <use
       id="use13188"
       transform="matrix(-1,0,0,-1,280.26332,195.72299)"
       xlink:href="#g13168"
       inkscape:tiled-clone-of="#g13168"
       y="0"
       x="0"
       width="744.09448"
       height="1052.3622" />
    <use
       id="use13190"
       transform="translate(-18,0)"
       xlink:href="#g13168"
       inkscape:tiled-clone-of="#g13168"
       y="0"
       x="0"
       width="744.09448"
       height="1052.3622" />
    <use
       id="use13192"
       transform="matrix(-1,0,0,-1,262.26332,87.72298)"
       xlink:href="#g13168"
       inkscape:tiled-clone-of="#g13168"
       y="0"
       x="0"
       width="744.09448"
       height="1052.3622" />
    <use
       id="use13194"
       transform="translate(-18,36.000001)"
       xlink:href="#g13168"
       inkscape:tiled-clone-of="#g13168"
       y="0"
       x="0"
       width="744.09448"
       height="1052.3622" />
    <use
       id="use13196"
       transform="matrix(-1,0,0,-1,262.26332,123.72298)"
       xlink:href="#g13168"
       inkscape:tiled-clone-of="#g13168"
       y="0"
       x="0"
       width="744.09448"
       height="1052.3622" />
    <use
       id="use13198"
       transform="translate(-18,72.000002)"
       xlink:href="#g13168"
       inkscape:tiled-clone-of="#g13168"
       y="0"
       x="0"
       width="744.09448"
       height="1052.3622" />
    <use
       id="use13200"
       transform="matrix(-1,0,0,-1,262.26332,159.72298)"
       xlink:href="#g13168"
       inkscape:tiled-clone-of="#g13168"
       y="0"
       x="0"
       width="744.09448"
       height="1052.3622" />
    <use
       id="use13202"
       transform="translate(-18,108)"
       xlink:href="#g13168"
       inkscape:tiled-clone-of="#g13168"
       y="0"
       x="0"
       width="744.09448"
       height="1052.3622" />
    <use
       id="use13204"
       transform="matrix(-1,0,0,-1,262.26332,195.72299)"
       xlink:href="#g13168"
       inkscape:tiled-clone-of="#g13168"
       y="0"
       x="0"
       width="744.09448"
       height="1052.3622" />
    <use
       id="use13206"
       transform="translate(-36.000001,0)"
       xlink:href="#g13168"
       inkscape:tiled-clone-of="#g13168"
       y="0"
       x="0"
       width="744.09448"
       height="1052.3622" />
    <use
       id="use13208"
       transform="matrix(-1,0,0,-1,244.26332,87.72298)"
       xlink:href="#g13168"
       inkscape:tiled-clone-of="#g13168"
       y="0"
       x="0"
       width="744.09448"
       height="1052.3622" />
    <use
       id="use13210"
       transform="translate(-36.000001,36.000001)"
       xlink:href="#g13168"
       inkscape:tiled-clone-of="#g13168"
       y="0"
       x="0"
       width="744.09448"
       height="1052.3622" />
    <use
       id="use13212"
       transform="matrix(-1,0,0,-1,244.26332,123.72298)"
       xlink:href="#g13168"
       inkscape:tiled-clone-of="#g13168"
       y="0"
       x="0"
       width="744.09448"
       height="1052.3622" />
    <use
       id="use13214"
       transform="translate(-36.000001,72.000002)"
       xlink:href="#g13168"
       inkscape:tiled-clone-of="#g13168"
       y="0"
       x="0"
       width="744.09448"
       height="1052.3622" />
    <use
       id="use13216"
       transform="matrix(-1,0,0,-1,244.26332,159.72298)"
       xlink:href="#g13168"
       inkscape:tiled-clone-of="#g13168"
       y="0"
       x="0"
       width="744.09448"
       height="1052.3622" />
    <use
       id="use13218"
       transform="translate(-36.000001,108)"
       xlink:href="#g13168"
       inkscape:tiled-clone-of="#g13168"
       y="0"
       x="0"
       width="744.09448"
       height="1052.3622" />
    <use
       id="use13220"
       transform="matrix(-1,0,0,-1,244.26332,195.72299)"
       xlink:href="#g13168"
       inkscape:tiled-clone-of="#g13168"
       y="0"
       x="0"
       width="744.09448"
       height="1052.3622" />
    <use
       id="use13222"
       transform="translate(-54.000001,0)"
       xlink:href="#g13168"
       inkscape:tiled-clone-of="#g13168"
       y="0"
       x="0"
       width="744.09448"
       height="1052.3622" />
    <use
       id="use13224"
       transform="matrix(-1,0,0,-1,226.26332,87.72298)"
       xlink:href="#g13168"
       inkscape:tiled-clone-of="#g13168"
       y="0"
       x="0"
       width="744.09448"
       height="1052.3622" />
    <use
       id="use13226"
       transform="translate(-54.000001,36.000001)"
       xlink:href="#g13168"
       inkscape:tiled-clone-of="#g13168"
       y="0"
       x="0"
       width="744.09448"
       height="1052.3622" />
    <use
       id="use13228"
       transform="matrix(-1,0,0,-1,226.26332,123.72298)"
       xlink:href="#g13168"
       inkscape:tiled-clone-of="#g13168"
       y="0"
       x="0"
       width="744.09448"
       height="1052.3622" />
    <use
       id="use13230"
       transform="translate(-54.000001,72.000002)"
       xlink:href="#g13168"
       inkscape:tiled-clone-of="#g13168"
       y="0"
       x="0"
       width="744.09448"
       height="1052.3622" />
    <use
       id="use13232"
       transform="matrix(-1,0,0,-1,226.26332,159.72298)"
       xlink:href="#g13168"
       inkscape:tiled-clone-of="#g13168"
       y="0"
       x="0"
       width="744.09448"
       height="1052.3622" />
    <use
       id="use13234"
       transform="translate(-54.000001,108)"
       xlink:href="#g13168"
       inkscape:tiled-clone-of="#g13168"
       y="0"
       x="0"
       width="744.09448"
       height="1052.3622" />
    <use
       id="use13236"
       transform="matrix(-1,0,0,-1,226.26332,195.72299)"
       xlink:href="#g13168"
       inkscape:tiled-clone-of="#g13168"
       y="0"
       x="0"
       width="744.09448"
       height="1052.3622" />
    <use
       id="use13238"
       transform="translate(-72.000002,0)"
       xlink:href="#g13168"
       inkscape:tiled-clone-of="#g13168"
       y="0"
       x="0"
       width="744.09448"
       height="1052.3622" />
    <use
       id="use13240"
       transform="matrix(-1,0,0,-1,208.26332,87.72298)"
       xlink:href="#g13168"
       inkscape:tiled-clone-of="#g13168"
       y="0"
       x="0"
       width="744.09448"
       height="1052.3622" />
    <use
       id="use13242"
       transform="translate(-72.000002,36.000001)"
       xlink:href="#g13168"
       inkscape:tiled-clone-of="#g13168"
       y="0"
       x="0"
       width="744.09448"
       height="1052.3622" />
    <use
       id="use13244"
       transform="matrix(-1,0,0,-1,208.26332,123.72298)"
       xlink:href="#g13168"
       inkscape:tiled-clone-of="#g13168"
       y="0"
       x="0"
       width="744.09448"
       height="1052.3622" />
    <use
       id="use13246"
       transform="translate(-72.000002,72.000002)"
       xlink:href="#g13168"
       inkscape:tiled-clone-of="#g13168"
       y="0"
       x="0"
       width="744.09448"
       height="1052.3622" />
    <use
       id="use13248"
       transform="matrix(-1,0,0,-1,208.26332,159.72298)"
       xlink:href="#g13168"
       inkscape:tiled-clone-of="#g13168"
       y="0"
       x="0"
       width="744.09448"
       height="1052.3622" />
    <use
       id="use13250"
       transform="translate(-72.000002,108)"
       xlink:href="#g13168"
       inkscape:tiled-clone-of="#g13168"
       y="0"
       x="0"
       width="744.09448"
       height="1052.3622" />
    <use
       id="use13252"
       transform="matrix(-1,0,0,-1,208.26332,195.72299)"
       xlink:href="#g13168"
       inkscape:tiled-clone-of="#g13168"
       y="0"
       x="0"
       width="744.09448"
       height="1052.3622" />
    <rect
       transform="scale(-1,-1)"
       y="-187.11809"
       x="-151.32837"
       height="178.5132"
       width="94.39341"
       id="rect13261"
       style="fill:none;stroke:#008000;stroke-width:0.18;stroke-linecap:butt;stroke-linejoin:miter;stroke-miterlimit:4;stroke-opacity:1;stroke-dasharray:none" />
    <path
       inkscape:connector-curvature="0"
       id="path13310"
       d="m 151.46726,26.160297 -94.599603,0"
       style="fill:none;stroke:#ffff00;stroke-width:0.18194842000000000;stroke-linecap:butt;stroke-linejoin:miter;stroke-miterlimit:4;stroke-opacity:1;stroke-dasharray:none" />
    <g
       transform="matrix(-1,0,0,1,205.56834,-6)"
       inkscape:tile-y0="14.526886"
       inkscape:tile-x0="59.514738"
       inkscape:tile-h="9"
       inkscape:tile-w="9"
       inkscape:tile-cy="19.026886"
       inkscape:tile-cx="64.014738"
       id="g13326">
      <path
         sodipodi:type="arc"
         style="fill:none;stroke:#ff0000;stroke-width:1.005;stroke-linecap:butt;stroke-linejoin:miter;stroke-miterlimit:4;stroke-opacity:1;stroke-dasharray:none"
         id="path9871-6"
         sodipodi:cx="25.892778"
         sodipodi:cy="18.76478"
         sodipodi:rx="1.5852721"
         sodipodi:ry="1.5852721"
         d="m 27.47805,18.76478 c 0,0.875522 -0.70975,1.585272 -1.585272,1.585272 -0.875521,0 -1.585272,-0.70975 -1.585272,-1.585272 0,-0.875522 0.709751,-1.585272 1.585272,-1.585272 0.875522,0 1.585272,0.70975 1.585272,1.585272 z"
         transform="matrix(0.27273019,0.32502718,-0.32502718,0.27273019,60.170664,7.321683)" />
      <path
         sodipodi:type="arc"
         style="fill:none;stroke:#ffff00;stroke-width:0;stroke-linecap:butt;stroke-linejoin:miter;stroke-miterlimit:4;stroke-opacity:1;stroke-dasharray:none"
         id="path13324"
         sodipodi:cx="62.113503"
         sodipodi:cy="20.928123"
         sodipodi:rx="2.6245141"
         sodipodi:ry="2.6245141"
         d="m 64.738017,20.928123 c 0,1.44948 -1.175035,2.624515 -2.624514,2.624515 -1.44948,0 -2.624515,-1.175035 -2.624515,-2.624515 0,-1.449479 1.175035,-2.624514 2.624515,-2.624514 1.449479,0 2.624514,1.175035 2.624514,2.624514 z"
         transform="matrix(1.7146031,0,0,1.7146031,-42.485266,-16.856539)" />
    </g>
    <use
       id="use13332"
       transform="translate(-9,0)"
       xlink:href="#g13326"
       inkscape:tiled-clone-of="#g13326"
       y="0"
       x="0"
       width="744.09448"
       height="1052.3622" />
    <use
       id="use13334"
       transform="translate(-18,0)"
       xlink:href="#g13326"
       inkscape:tiled-clone-of="#g13326"
       y="0"
       x="0"
       width="744.09448"
       height="1052.3622" />
    <use
       id="use13336"
       transform="translate(-27,0)"
       xlink:href="#g13326"
       inkscape:tiled-clone-of="#g13326"
       y="0"
       x="0"
       width="744.09448"
       height="1052.3622" />
    <use
       id="use13338"
       transform="translate(-36,0)"
       xlink:href="#g13326"
       inkscape:tiled-clone-of="#g13326"
       y="0"
       x="0"
       width="744.09448"
       height="1052.3622" />
    <use
       id="use13340"
       transform="translate(-45,0)"
       xlink:href="#g13326"
       inkscape:tiled-clone-of="#g13326"
       y="0"
       x="0"
       width="744.09448"
       height="1052.3622" />
    <use
       id="use13342"
       transform="translate(-54,0)"
       xlink:href="#g13326"
       inkscape:tiled-clone-of="#g13326"
       y="0"
       x="0"
       width="744.09448"
       height="1052.3622" />
    <use
       id="use13344"
       transform="translate(-63,0)"
       xlink:href="#g13326"
       inkscape:tiled-clone-of="#g13326"
       y="0"
       x="0"
       width="744.09448"
       height="1052.3622" />
    <use
       id="use13346"
       transform="translate(-72,0)"
       xlink:href="#g13326"
       inkscape:tiled-clone-of="#g13326"
       y="0"
       x="0"
       width="744.09448"
       height="1052.3622" />
    <use
       id="use13348"
       transform="translate(-81,0)"
       xlink:href="#g13326"
       inkscape:tiled-clone-of="#g13326"
       y="0"
       x="0"
       width="744.09448"
       height="1052.3622" />
    <path
       style="fill:none;stroke:#ffff00;stroke-width:0.18204069;stroke-linecap:butt;stroke-linejoin:miter;stroke-miterlimit:4;stroke-opacity:1;stroke-dasharray:none"
       d="m 151.56331,169.56269 -94.695561,0"
       id="path13366"
       inkscape:connector-curvature="0" />
    <g
       transform="matrix(-1,0,0,1,208.26332,0)"
       inkscape:tile-y0="178.1961"
       inkscape:tile-x0="62.209718"
       inkscape:tile-h="9"
       inkscape:tile-w="9"
       inkscape:tile-cy="182.6961"
       inkscape:tile-cx="66.709718"
       id="g15260">
      <path
         transform="matrix(0.27273019,-0.32502718,-0.32502718,-0.27273019,62.865645,194.40131)"
         d="m 27.47805,18.76478 c 0,0.875522 -0.70975,1.585272 -1.585272,1.585272 -0.875521,0 -1.585272,-0.70975 -1.585272,-1.585272 0,-0.875522 0.709751,-1.585272 1.585272,-1.585272 0.875522,0 1.585272,0.70975 1.585272,1.585272 z"
         sodipodi:ry="1.5852721"
         sodipodi:rx="1.5852721"
         sodipodi:cy="18.76478"
         sodipodi:cx="25.892778"
         id="path15222"
         style="fill:none;stroke:#ff0000;stroke-width:0.53962731;stroke-linecap:butt;stroke-linejoin:miter;stroke-miterlimit:4;stroke-opacity:1;stroke-dasharray:none"
         sodipodi:type="arc" />
      <path
         transform="matrix(1.7146031,0,0,-1.7146031,-39.790286,218.57953)"
         d="m 64.738017,20.928123 c 0,1.44948 -1.175035,2.624515 -2.624514,2.624515 -1.44948,0 -2.624515,-1.175035 -2.624515,-2.624515 0,-1.449479 1.175035,-2.624514 2.624515,-2.624514 1.449479,0 2.624514,1.175035 2.624514,2.624514 z"
         sodipodi:ry="2.6245141"
         sodipodi:rx="2.6245141"
         sodipodi:cy="20.928123"
         sodipodi:cx="62.113503"
         id="path15224"
         style="fill:none;stroke:#ffff00;stroke-width:0;stroke-linecap:butt;stroke-linejoin:miter;stroke-miterlimit:4;stroke-opacity:1;stroke-dasharray:none"
         sodipodi:type="arc" />
      <rect
         style="fill:none;stroke:#ff0000;stroke-width:0.18000001;stroke-linecap:butt;stroke-linejoin:miter;stroke-miterlimit:4;stroke-opacity:1;stroke-dasharray:none"
         id="rect15256"
         width="1.7993637"
         height="0.89922094"
         x="62.928642"
         y="181.74484" />
    </g>
    <use
       id="use15267"
       transform="translate(-9,0)"
       xlink:href="#g15260"
       inkscape:tiled-clone-of="#g15260"
       y="0"
       x="0"
       width="744.09448"
       height="1052.3622" />
    <use
       id="use15269"
       transform="translate(-18,0)"
       xlink:href="#g15260"
       inkscape:tiled-clone-of="#g15260"
       y="0"
       x="0"
       width="744.09448"
       height="1052.3622" />
    <use
       id="use15271"
       transform="translate(-27,0)"
       xlink:href="#g15260"
       inkscape:tiled-clone-of="#g15260"
       y="0"
       x="0"
       width="744.09448"
       height="1052.3622" />
    <use
       id="use15273"
       transform="translate(-36,0)"
       xlink:href="#g15260"
       inkscape:tiled-clone-of="#g15260"
       y="0"
       x="0"
       width="744.09448"
       height="1052.3622" />
    <use
       id="use15275"
       transform="translate(-45,0)"
       xlink:href="#g15260"
       inkscape:tiled-clone-of="#g15260"
       y="0"
       x="0"
       width="744.09448"
       height="1052.3622" />
    <use
       id="use15277"
       transform="translate(-54,0)"
       xlink:href="#g15260"
       inkscape:tiled-clone-of="#g15260"
       y="0"
       x="0"
       width="744.09448"
       height="1052.3622" />
    <use
       id="use15279"
       transform="translate(-63,0)"
       xlink:href="#g15260"
       inkscape:tiled-clone-of="#g15260"
       y="0"
       x="0"
       width="744.09448"
       height="1052.3622" />
    <use
       id="use15281"
       transform="translate(-72,0)"
       xlink:href="#g15260"
       inkscape:tiled-clone-of="#g15260"
       y="0"
       x="0"
       width="744.09448"
       height="1052.3622" />
    <use
       id="use15283"
       transform="translate(-81,0)"
       xlink:href="#g15260"
       inkscape:tiled-clone-of="#g15260"
       y="0"
       x="0"
       width="744.09448"
       height="1052.3622" />
    <path
       transform="translate(-3.2186482,1.1316023)"
       sodipodi:open="true"
       sodipodi:end="6.2831853"
       sodipodi:start="4.712389"
       d="m 60.453674,182.24707 a 3.3512836,3.3512836 0 0 1 3.351284,3.35129"
       sodipodi:ry="3.3512836"
       sodipodi:rx="3.3512836"
       sodipodi:cy="185.59836"
       sodipodi:cx="60.453674"
       id="path16583"
       style="fill:none;stroke:#000080;stroke-width:0.18000001;stroke-linecap:butt;stroke-linejoin:miter;stroke-miterlimit:4;stroke-opacity:1;stroke-dasharray:none"
       sodipodi:type="arc" />
    <g
       id="g3435"
       transform="matrix(0.28314788,0,0,0.28314788,65.959377,160.83002)"
       inkscape:label="Hershey Text"
       style="stroke:#0000ff">
      <path
         id="path3437"
         transform="translate(10,0)"
         d="m 7,-9 -2,-2 -3,-1 -4,0 -3,1 -2,2 0,2 1,2 1,1 2,1 6,2 L 5,0 6,1 7,3 7,6 5,8 2,9 -2,9 -5,8 -7,6"
         style="fill:none;stroke:#0000ff;stroke-width:3.53172350000000000"
         inkscape:connector-curvature="0" />
    </g>
    <g
       inkscape:label="Hershey Text"
       transform="matrix(0.28314788,0,0,0.28314788,84.525673,160.83002)"
       id="g3603"
       style="stroke:#0000ff">
      <path
         style="fill:none;stroke:#0000ff;stroke-width:3.53172350000000000"
         d="M 0,-12 0,9 m -7,-21 14,0"
         transform="translate(8,0)"
         id="path3605"
         inkscape:connector-curvature="0" />
    </g>
    <g
       id="g3775"
       transform="matrix(0.28314788,0,0,0.28314788,102.24253,160.57097)"
       inkscape:label="Hershey Text"
       style="stroke:#0000ff">
      <path
         id="path3777"
         transform="translate(9,0)"
         d="M 0,-12 -8,9 M 0,-12 8,9 M -5,2 5,2"
         style="fill:none;stroke:#0000ff;stroke-width:3.53172350000000000"
         inkscape:connector-curvature="0" />
    </g>
    <g
       inkscape:label="Hershey Text"
       transform="matrix(0.28314788,0,0,0.28314788,119.61119,161.17821)"
       id="g3951"
       style="stroke:#0000ff">
      <path
         style="fill:none;stroke:#0000ff;stroke-width:3.53172350000000000"
         d="m -7,-12 0,21 m 0,-21 9,0 3,1 1,1 1,2 0,2 -1,2 -1,1 -3,1 -9,0 m 7,0 7,11"
         transform="translate(11,0)"
         id="path3953"
         inkscape:connector-curvature="0" />
    </g>
    <g
       id="g4131"
       transform="matrix(0.28314788,0,0,0.28314788,138.52567,161.5264)"
       inkscape:label="Hershey Text"
       style="stroke:#0000ff">
      <path
         id="path4133"
         transform="translate(8,0)"
         d="M 0,-12 0,9 m -7,-21 14,0"
         style="fill:none;stroke:#0000ff;stroke-width:3.53172350000000000"
         inkscape:connector-curvature="0" />
    </g>
    <path
       inkscape:connector-curvature="0"
       style="fill:none;stroke:#0000ff;stroke-width:0.18000001;stroke-miterlimit:4;stroke-dasharray:none"
       d="m 67.425743,140.5681 0,-0.24732 0.266658,-0.49465 0.266659,-0.24732 0.533317,-0.24732 1.066633,0 0.533317,0.24732 0.266658,0.24732 0.266659,0.49465 0,0.49464 -0.266659,0.49465 -0.533317,0.74197 -2.666583,2.47323 3.733217,0"
       id="path30243" />
    <path
       inkscape:connector-curvature="0"
       style="fill:none;stroke:#0000ff;stroke-width:0.18000001;stroke-miterlimit:4;stroke-dasharray:none"
       d="m 67.161122,121.04821 2.933242,0 -1.599951,1.97858 0.799976,0 0.533317,0.24732 0.266658,0.24732 0.266658,0.74197 0,0.49465 -0.266658,0.74197 -0.533317,0.49464 -0.799975,0.24733 -0.799975,0 -0.799975,-0.24733 -0.266659,-0.24732 -0.266658,-0.49465"
       id="path30245" />
    <path
       inkscape:connector-curvature="0"
       style="fill:none;stroke:#0000ff;stroke-width:0.18000001;stroke-miterlimit:4;stroke-dasharray:none"
       d="m 69.108074,104.1448 -2.666584,3.46252 3.999875,0 m -1.333291,-3.46252 0,5.19378"
       id="path30247" />
    <path
       inkscape:connector-curvature="0"
       style="fill:none;stroke:#0000ff;stroke-width:0.18000001;stroke-miterlimit:4;stroke-dasharray:none"
       d="m 70.145011,85.516548 -2.666583,0 -0.266658,2.225905 0.266658,-0.247323 0.799975,-0.247322 0.799975,0 0.799975,0.247322 0.533317,0.494646 0.266658,0.741969 0,0.494645 -0.266658,0.741968 -0.533317,0.494646 -0.799975,0.247323 -0.799975,0 -0.799975,-0.247323 -0.266658,-0.247323 -0.266659,-0.494646"
       id="path30249" />
    <path
       inkscape:connector-curvature="0"
       style="fill:none;stroke:#0000ff;stroke-width:0.18000001;stroke-miterlimit:4;stroke-dasharray:none"
       d="m 70.225356,67.975236 -0.266658,-0.494646 -0.799976,-0.247323 -0.533316,0 -0.799975,0.247323 -0.533317,0.741969 -0.266658,1.236613 0,1.236615 0.266658,0.98929 0.533317,0.494646 0.799975,0.247323 0.266658,0 0.799975,-0.247323 0.533317,-0.494646 0.266658,-0.741968 0,-0.247322 -0.266658,-0.741969 -0.533317,-0.494646 -0.799975,-0.247323 -0.266658,0 -0.799975,0.247323 -0.533317,0.494646 -0.266658,0.741969"
       id="path30251" />
    <path
       inkscape:connector-curvature="0"
       style="fill:none;stroke:#0000ff;stroke-width:0.18000001;stroke-miterlimit:4;stroke-dasharray:none"
       d="m 70.995635,48.949986 -2.666583,5.193779 m -1.066633,-5.193779 3.733216,0"
       id="path30253" />
    <path
       inkscape:connector-curvature="0"
       style="fill:none;stroke:#0000ff;stroke-width:0.18000001;stroke-miterlimit:4;stroke-dasharray:none"
       d="m 68.754363,31.011672 -0.799975,0.247323 -0.266658,0.494646 0,0.494646 0.266658,0.494645 0.533317,0.247322 1.066634,0.247323 0.799974,0.247323 0.533317,0.494646 0.266659,0.494646 0,0.741967 -0.266659,0.494646 -0.266658,0.247323 -0.799975,0.247323 -1.066634,0 -0.799975,-0.247323 -0.266658,-0.247323 -0.266658,-0.494646 0,-0.741967 0.266658,-0.494646 0.533316,-0.494646 0.799976,-0.247323 1.066633,-0.247323 0.533317,-0.247322 0.266658,-0.494645 0,-0.494646 -0.266658,-0.494646 -0.799975,-0.247323 -1.066634,0"
       id="path30255" />
  </g>
</svg>
