<?xml version="1.0" encoding="UTF-8" standalone="no"?>
<!-- Created with Inkscape (http://www.inkscape.org/) -->

<svg
   xmlns:dc="http://purl.org/dc/elements/1.1/"
   xmlns:cc="http://creativecommons.org/ns#"
   xmlns:rdf="http://www.w3.org/1999/02/22-rdf-syntax-ns#"
   xmlns:svg="http://www.w3.org/2000/svg"
   xmlns="http://www.w3.org/2000/svg"
   xmlns:xlink="http://www.w3.org/1999/xlink"
   xmlns:sodipodi="http://sodipodi.sourceforge.net/DTD/sodipodi-0.dtd"
   xmlns:inkscape="http://www.inkscape.org/namespaces/inkscape"
   width="744.09448819"
   height="1052.3622047"
   id="svg6942"
   version="1.1"
   inkscape:version="0.48.4 r9939"
   sodipodi:docname="vanity plate.svg">
  <defs
     id="defs6944" />
  <sodipodi:namedview
     id="base"
     pagecolor="#ffffff"
     bordercolor="#666666"
     borderopacity="1.0"
     inkscape:pageopacity="0.0"
     inkscape:pageshadow="2"
     inkscape:zoom="6.0909702"
     inkscape:cx="117.45906"
     inkscape:cy="911.90856"
     inkscape:document-units="px"
     inkscape:current-layer="layer1"
     showgrid="false"
     inkscape:window-width="2560"
     inkscape:window-height="1515"
     inkscape:window-x="2552"
     inkscape:window-y="-8"
     inkscape:window-maximized="1" />
  <metadata
     id="metadata6947">
    <rdf:RDF>
      <cc:Work
         rdf:about="">
        <dc:format>image/svg+xml</dc:format>
        <dc:type
           rdf:resource="http://purl.org/dc/dcmitype/StillImage" />
        <dc:title />
      </cc:Work>
    </rdf:RDF>
  </metadata>
  <g
     inkscape:label="Layer 1"
     inkscape:groupmode="layer"
     id="layer1">
    <text
       xml:space="preserve"
       style="font-size:21.92090225px;font-style:normal;font-variant:normal;font-weight:normal;font-stretch:normal;text-align:start;line-height:125%;letter-spacing:0px;word-spacing:0px;writing-mode:lr-tb;text-anchor:start;fill:none;stroke:#0000ff;stroke-width:0.05480226;stroke-miterlimit:4;stroke-opacity:1;stroke-dasharray:none;font-family:Plantagenet Cherokee;-inkscape-font-specification:Plantagenet Cherokee"
       x="65.706245"
       y="76.761436"
       id="text4346"
       sodipodi:linespacing="125%"><tspan
         sodipodi:role="line"
         id="tspan4348"
         x="65.706245"
         y="76.761436"
         style="font-size:21.92090225px;font-style:normal;font-variant:normal;font-weight:normal;font-stretch:normal;text-align:start;line-height:125%;writing-mode:lr-tb;text-anchor:start;fill:none;stroke:#0000ff;stroke-width:0.05480226;stroke-miterlimit:4;stroke-opacity:1;stroke-dasharray:none;font-family:Plantagenet Cherokee;-inkscape-font-specification:Plantagenet Cherokee">OGNITE</tspan></text>
    <rect
       style="fill:none;stroke:#008000;stroke-width:0.94403708px;stroke-linecap:butt;stroke-linejoin:round;stroke-opacity:1"
       id="rect3188"
       width="91.166267"
       height="168.41768"
       x="63.704948"
       y="54.773911"
       ry="6.9418979"
       transform="matrix(1,0,0,1.0126727,0,-0.69413341)"
       rx="6.9418979" />
    <g
       id="g7593"
       inkscape:tile-cx="73.588821"
       inkscape:tile-cy="88.888832"
       inkscape:tile-w="18"
       inkscape:tile-h="18"
       inkscape:tile-x0="64.588821"
       inkscape:tile-y0="79.888832"
       style="stroke:#ff0000">
      <rect
         y="79.888832"
         x="64.588821"
         height="18"
         width="18"
         id="rect5606"
         style="fill:none;stroke:#ff0000;stroke-width:0;stroke-linecap:butt;stroke-linejoin:miter;stroke-miterlimit:0.89999998;stroke-opacity:1;stroke-dasharray:none" />
      <path
         transform="matrix(0.44234676,0,0,0.56084297,29.421679,7.263151)"
         d="m 111.72197,145.54106 c 0,5.17265 -5.31646,9.36591 -11.874642,9.36591 -6.558183,0 -11.87464,-4.19326 -11.87464,-9.36591 0,-5.17265 5.316457,-9.36591 11.87464,-9.36591 6.558182,0 11.874642,4.19326 11.874642,9.36591 z"
         sodipodi:ry="9.3659134"
         sodipodi:rx="11.87464"
         sodipodi:cy="145.54106"
         sodipodi:cx="99.847328"
         id="path7591"
         style="fill:none;stroke:#ff0000;stroke-width:0.1;stroke-linecap:butt;stroke-linejoin:miter;stroke-miterlimit:0.89999998;stroke-opacity:1;stroke-dasharray:none"
         sodipodi:type="arc" />
    </g>
    <use
       height="1052.3622"
       width="744.09448"
       x="0"
       y="0"
       inkscape:tiled-clone-of="#g7593"
       xlink:href="#g7593"
       transform="matrix(-1,0,0,-1,147.17764,195.77766)"
       id="use7679" />
    <use
       height="1052.3622"
       width="744.09448"
       x="0"
       y="0"
       inkscape:tiled-clone-of="#g7593"
       xlink:href="#g7593"
       transform="translate(0,36)"
       id="use7681" />
    <use
       height="1052.3622"
       width="744.09448"
       x="0"
       y="0"
       inkscape:tiled-clone-of="#g7593"
       xlink:href="#g7593"
       transform="matrix(-1,0,0,-1,147.17764,231.77766)"
       id="use7683" />
    <use
       height="1052.3622"
       width="744.09448"
       x="0"
       y="0"
       inkscape:tiled-clone-of="#g7593"
       xlink:href="#g7593"
       transform="translate(0,72)"
       id="use7685" />
    <use
       height="1052.3622"
       width="744.09448"
       x="0"
       y="0"
       inkscape:tiled-clone-of="#g7593"
       xlink:href="#g7593"
       transform="matrix(-1,0,0,-1,147.17764,267.77766)"
       id="use7687" />
    <use
       height="1052.3622"
       width="744.09448"
       x="0"
       y="0"
       inkscape:tiled-clone-of="#g7593"
       xlink:href="#g7593"
       transform="translate(0,108)"
       id="use7689" />
    <use
       height="1052.3622"
       width="744.09448"
       x="0"
       y="0"
       inkscape:tiled-clone-of="#g7593"
       xlink:href="#g7593"
       transform="matrix(-1,0,0,-1,147.17764,303.77766)"
       id="use7691" />
    <use
       height="1052.3622"
       width="744.09448"
       x="0"
       y="0"
       inkscape:tiled-clone-of="#g7593"
       xlink:href="#g7593"
       transform="matrix(0.64278761,0.76604444,-0.76604444,0.64278761,112.37963,-24.620115)"
       id="use7693" />
    <use
       height="1052.3622"
       width="744.09448"
       x="0"
       y="0"
       inkscape:tiled-clone-of="#g7593"
       xlink:href="#g7593"
       transform="matrix(-0.64278761,-0.76604444,0.76604444,-0.64278761,70.798008,220.39778)"
       id="use7695" />
    <use
       height="1052.3622"
       width="744.09448"
       x="0"
       y="0"
       inkscape:tiled-clone-of="#g7593"
       xlink:href="#g7593"
       transform="matrix(0.64278761,0.76604444,-0.76604444,0.64278761,112.37963,11.379885)"
       id="use7697" />
    <use
       height="1052.3622"
       width="744.09448"
       x="0"
       y="0"
       inkscape:tiled-clone-of="#g7593"
       xlink:href="#g7593"
       transform="matrix(-0.64278761,-0.76604444,0.76604444,-0.64278761,70.798008,256.39778)"
       id="use7699" />
    <use
       height="1052.3622"
       width="744.09448"
       x="0"
       y="0"
       inkscape:tiled-clone-of="#g7593"
       xlink:href="#g7593"
       transform="matrix(0.64278761,0.76604444,-0.76604444,0.64278761,112.37963,47.379885)"
       id="use7701" />
    <use
       height="1052.3622"
       width="744.09448"
       x="0"
       y="0"
       inkscape:tiled-clone-of="#g7593"
       xlink:href="#g7593"
       transform="matrix(-0.64278761,-0.76604444,0.76604444,-0.64278761,70.798008,292.39778)"
       id="use7703" />
    <use
       height="1052.3622"
       width="744.09448"
       x="0"
       y="0"
       inkscape:tiled-clone-of="#g7593"
       xlink:href="#g7593"
       transform="matrix(0.64278761,0.76604444,-0.76604444,0.64278761,112.37963,83.379885)"
       id="use7705" />
    <use
       height="1052.3622"
       width="744.09448"
       x="0"
       y="0"
       inkscape:tiled-clone-of="#g7593"
       xlink:href="#g7593"
       transform="matrix(-0.64278761,-0.76604444,0.76604444,-0.64278761,70.798008,328.39778)"
       id="use7707" />
    <use
       height="1052.3622"
       width="744.09448"
       x="0"
       y="0"
       inkscape:tiled-clone-of="#g7593"
       xlink:href="#g7593"
       transform="translate(36,0)"
       id="use7709" />
    <use
       height="1052.3622"
       width="744.09448"
       x="0"
       y="0"
       inkscape:tiled-clone-of="#g7593"
       xlink:href="#g7593"
       transform="matrix(-1,0,0,-1,183.17764,195.77766)"
       id="use7711" />
    <use
       height="1052.3622"
       width="744.09448"
       x="0"
       y="0"
       inkscape:tiled-clone-of="#g7593"
       xlink:href="#g7593"
       transform="translate(36,36)"
       id="use7713" />
    <use
       height="1052.3622"
       width="744.09448"
       x="0"
       y="0"
       inkscape:tiled-clone-of="#g7593"
       xlink:href="#g7593"
       transform="matrix(-1,0,0,-1,183.17764,231.77766)"
       id="use7715" />
    <use
       height="1052.3622"
       width="744.09448"
       x="0"
       y="0"
       inkscape:tiled-clone-of="#g7593"
       xlink:href="#g7593"
       transform="translate(36,72)"
       id="use7717" />
    <use
       height="1052.3622"
       width="744.09448"
       x="0"
       y="0"
       inkscape:tiled-clone-of="#g7593"
       xlink:href="#g7593"
       transform="matrix(-1,0,0,-1,183.17764,267.77766)"
       id="use7719" />
    <use
       height="1052.3622"
       width="744.09448"
       x="0"
       y="0"
       inkscape:tiled-clone-of="#g7593"
       xlink:href="#g7593"
       transform="translate(36,108)"
       id="use7721" />
    <use
       height="1052.3622"
       width="744.09448"
       x="0"
       y="0"
       inkscape:tiled-clone-of="#g7593"
       xlink:href="#g7593"
       transform="matrix(-1,0,0,-1,183.17764,303.77766)"
       id="use7723" />
    <use
       height="1052.3622"
       width="744.09448"
       x="0"
       y="0"
       inkscape:tiled-clone-of="#g7593"
       xlink:href="#g7593"
       transform="matrix(0.64278761,0.76604444,-0.76604444,0.64278761,148.37963,-24.620115)"
       id="use7725" />
    <use
       height="1052.3622"
       width="744.09448"
       x="0"
       y="0"
       inkscape:tiled-clone-of="#g7593"
       xlink:href="#g7593"
       transform="matrix(-0.64278761,-0.76604444,0.76604444,-0.64278761,106.79801,220.39778)"
       id="use7727" />
    <use
       height="1052.3622"
       width="744.09448"
       x="0"
       y="0"
       inkscape:tiled-clone-of="#g7593"
       xlink:href="#g7593"
       transform="matrix(0.64278761,0.76604444,-0.76604444,0.64278761,148.37963,11.379885)"
       id="use7729" />
    <use
       height="1052.3622"
       width="744.09448"
       x="0"
       y="0"
       inkscape:tiled-clone-of="#g7593"
       xlink:href="#g7593"
       transform="matrix(-0.64278761,-0.76604444,0.76604444,-0.64278761,106.79801,256.39778)"
       id="use7731" />
    <use
       height="1052.3622"
       width="744.09448"
       x="0"
       y="0"
       inkscape:tiled-clone-of="#g7593"
       xlink:href="#g7593"
       transform="matrix(0.64278761,0.76604444,-0.76604444,0.64278761,148.37963,47.379885)"
       id="use7733" />
    <use
       height="1052.3622"
       width="744.09448"
       x="0"
       y="0"
       inkscape:tiled-clone-of="#g7593"
       xlink:href="#g7593"
       transform="matrix(-0.64278761,-0.76604444,0.76604444,-0.64278761,106.79801,292.39778)"
       id="use7735" />
    <use
       height="1052.3622"
       width="744.09448"
       x="0"
       y="0"
       inkscape:tiled-clone-of="#g7593"
       xlink:href="#g7593"
       transform="matrix(0.64278761,0.76604444,-0.76604444,0.64278761,148.37963,83.379885)"
       id="use7737" />
    <use
       height="1052.3622"
       width="744.09448"
       x="0"
       y="0"
       inkscape:tiled-clone-of="#g7593"
       xlink:href="#g7593"
       transform="matrix(-0.64278761,-0.76604444,0.76604444,-0.64278761,106.79801,328.39778)"
       id="use7739" />
    <use
       height="1052.3622"
       width="744.09448"
       x="0"
       y="0"
       inkscape:tiled-clone-of="#g7593"
       xlink:href="#g7593"
       transform="translate(72,0)"
       id="use7741" />
    <use
       height="1052.3622"
       width="744.09448"
       x="0"
       y="0"
       inkscape:tiled-clone-of="#g7593"
       xlink:href="#g7593"
       transform="matrix(-1,0,0,-1,219.17764,195.77766)"
       id="use7743" />
    <use
       height="1052.3622"
       width="744.09448"
       x="0"
       y="0"
       inkscape:tiled-clone-of="#g7593"
       xlink:href="#g7593"
       transform="translate(72,36)"
       id="use7745" />
    <use
       height="1052.3622"
       width="744.09448"
       x="0"
       y="0"
       inkscape:tiled-clone-of="#g7593"
       xlink:href="#g7593"
       transform="matrix(-1,0,0,-1,219.17764,231.77766)"
       id="use7747" />
    <use
       height="1052.3622"
       width="744.09448"
       x="0"
       y="0"
       inkscape:tiled-clone-of="#g7593"
       xlink:href="#g7593"
       transform="translate(72,72)"
       id="use7749" />
    <use
       height="1052.3622"
       width="744.09448"
       x="0"
       y="0"
       inkscape:tiled-clone-of="#g7593"
       xlink:href="#g7593"
       transform="matrix(-1,0,0,-1,219.17764,267.77766)"
       id="use7751" />
    <use
       height="1052.3622"
       width="744.09448"
       x="0"
       y="0"
       inkscape:tiled-clone-of="#g7593"
       xlink:href="#g7593"
       transform="translate(72,108)"
       id="use7753" />
    <use
       height="1052.3622"
       width="744.09448"
       x="0"
       y="0"
       inkscape:tiled-clone-of="#g7593"
       xlink:href="#g7593"
       transform="matrix(-1,0,0,-1,219.17764,303.77766)"
       id="use7755" />
  </g>
</svg>
