<?xml version="1.0" encoding="UTF-8" standalone="no"?>
<!-- Created with Inkscape (http://www.inkscape.org/) -->

<svg
   xmlns:dc="http://purl.org/dc/elements/1.1/"
   xmlns:cc="http://creativecommons.org/ns#"
   xmlns:rdf="http://www.w3.org/1999/02/22-rdf-syntax-ns#"
   xmlns:svg="http://www.w3.org/2000/svg"
   xmlns="http://www.w3.org/2000/svg"
   xmlns:sodipodi="http://sodipodi.sourceforge.net/DTD/sodipodi-0.dtd"
   xmlns:inkscape="http://www.inkscape.org/namespaces/inkscape"
   width="810"
   height="540"
   id="svg2985"
   version="1.1"
   inkscape:version="0.48.4 r9939"
   sodipodi:docname="New document 2">
  <sodipodi:namedview
     id="base"
     pagecolor="#ffffff"
     bordercolor="#666666"
     borderopacity="1.0"
     inkscape:pageopacity="0.0"
     inkscape:pageshadow="2"
     inkscape:zoom="0.70424925"
     inkscape:cx="379.13995"
     inkscape:cy="310.17423"
     inkscape:document-units="in"
     inkscape:current-layer="layer1"
     showgrid="false"
     units="in"
     inkscape:window-width="1366"
     inkscape:window-height="705"
     inkscape:window-x="-8"
     inkscape:window-y="-8"
     inkscape:window-maximized="1"
     inkscape:object-paths="true" />
  <defs
     id="defs2987" />
  <metadata
     id="metadata2990">
    <rdf:RDF>
      <cc:Work
         rdf:about="">
        <dc:format>image/svg+xml</dc:format>
        <dc:type
           rdf:resource="http://purl.org/dc/dcmitype/StillImage" />
        <dc:title></dc:title>
      </cc:Work>
    </rdf:RDF>
  </metadata>
  <g
     inkscape:label="Layer 1"
     inkscape:groupmode="layer"
     id="layer1"
     transform="translate(0,-512.35975)">
    <path
       d="m 589.93926,906.03083 118.72823,-0.20947 9.89496,44.24898 -15.768,0.0403 -5.40464,-24.16743 -15.41126,-0.0357 3.92417,17.53009 -15.77228,0.04 -3.91988,-17.53009 -56.40523,0.0321 5.40018,24.16744 -15.37558,0.13382 -9.89067,-44.24898 z m 106.32681,-55.69038 10.88063,48.67388 -16.15577,-0.0582 -3.1215,-13.95717 -102.57227,0.26764 -4.52617,-20.25105 102.5721,-0.27227 -3.23279,-14.46567 16.15577,0.0625 z m -5.81917,-26.04088 4.22275,18.89057 -118.72805,0.20983 -4.22294,-18.89057 118.72824,-0.20947 z m -68.50788,-51.59998 -61.78772,0.0714 -2.92528,-13.10519 118.72359,-0.20983 2.51504,11.23175 -58.10867,30.6442 64.95383,-0.007 2.81826,12.59669 -118.73269,0.20518 -2.39463,-10.71878 54.93827,-30.70665 z m -4.9275,-50.25293 6.20285,27.74037 -68.08421,0.11597 -2.47044,-11.06224 2.73354,-2.69865 c -1.56075,-1.45862 -2.87624,-3.05996 -3.94646,-4.79513 -1.07023,-1.73963 -1.86844,-3.80042 -2.40355,-6.18237 -4.03119,-18.03859 4.9052,-27.05789 26.8047,-27.05343 l 51.39315,-0.0667 c 23.72337,-0.12918 37.60064,8.82303 41.63182,26.86163 2.26068,10.10322 -1.75267,18.16795 -12.03576,24.19866 l -10.86279,-12.90001 c 5.87304,-2.51131 8.3524,-5.81214 7.44271,-9.89803 -1.24432,-5.55789 -8.47726,-8.2833 -21.68995,-8.17625 l -51.78556,-0.0321 c -11.2463,0.0578 -16.26744,3.05104 -15.06789,8.97024 0.35674,1.58796 1.27535,2.79678 2.76029,3.61753 1.48494,0.82521 3.37567,1.414 5.68111,1.77085 l 30.4301,-0.0321 -2.31883,-10.37977 15.58517,0 z m -84.26246,-68.12201 c -5.27532,-23.59649 6.06461,-35.42149 34.01535,-35.47502 l 70.28709,-0.21874 c 30.29635,-0.0578 48.07102,11.65996 53.31941,35.14493 5.27978,23.59648 -6.0557,35.42594 -34.00643,35.47501 l -70.29141,0.21411 c -30.30077,0.0624 -48.07099,-11.6555 -53.32401,-35.14047 z m 154.3309,96.15678 56.73982,-0.0935 4.72683,21.14762 -7.53154,0.0179 -2.58209,-11.55291 -7.36673,-0.0143 1.8729,8.37698 -7.53618,0.0178 -1.87289,-8.37697 -26.95614,0.0143 2.58174,11.54845 -7.34888,0.0667 -4.72684,-21.15208 z m 49.81902,-31.0858 2.15829,9.67946 -14.89826,0 1.51152,6.75332 14.89862,0 2.14473,9.59472 -56.73982,0.0981 -2.14937,-9.59471 34.30967,-0.0803 -1.51152,-6.74886 -34.30538,0.0756 -2.16257,-9.67946 56.74409,-0.0981 z m 11.05009,-29.92159 6.70675,30.01526 -7.79018,0.0667 -2.0691,-9.27355 -66.67972,0.10277 -2.47044,-11.06225 66.67508,-0.10277 -2.16257,-9.675 7.79018,-0.0714 z M 577.10993,932.82109 c 2.11369,9.45197 -4.1828,14.78683 -18.88503,16.00903 l -3.77255,-8.64461 c 9.18165,-1.02147 13.3154,-3.56401 12.41462,-7.61422 -0.45484,-2.0251 -1.33778,-3.67106 -2.63989,-4.92894 -1.30211,-1.26234 -2.76921,-1.88237 -4.4013,-1.86006 -0.81605,0.007 -1.90857,0.14274 -2.86286,0.93672 l -20.90508,17.36505 0.11594,-0.0285 c -2.02897,1.91359 -4.28536,3.26069 -6.76918,4.04575 -2.47935,0.7806 -5.03898,1.16867 -7.65211,1.15975 -2.62206,-0.007 -5.25303,-0.41037 -7.87954,-1.20436 -2.63097,-0.79398 -5.0702,-1.99834 -7.31321,-3.61753 -2.23856,-1.61473 -4.16943,-3.5417 -5.76585,-5.76307 -1.60088,-2.21691 -2.72461,-4.75498 -3.35783,-7.6053 -2.26085,-10.12552 3.94646,-15.83952 18.63085,-17.13309 l 3.74579,8.53309 c -9.14597,1.17313 -13.17716,4.20187 -12.08909,9.07729 0.47268,2.09647 1.37345,3.8361 2.70232,5.20996 1.32886,1.37386 2.77367,2.03848 4.32549,2.05633 0.9855,0.0107 2.43031,-0.0535 3.67891,-1.11069 l 20.53496,-17.40965 c 1.95316,-1.65488 4.2809,-2.78341 6.80485,-3.57739 2.52395,-0.78952 5.13709,-1.1999 7.83495,-1.19544 2.61759,0 5.19951,0.38361 7.73684,1.11515 2.53287,0.736 4.86061,1.80653 6.97431,3.21608 2.11369,1.40508 3.93308,3.13579 5.45369,5.17427 1.51615,2.04295 2.57746,4.41598 3.18392,7.11463 l 0.1559,0.67801 z m -8.88288,-39.73041 c 2.11816,9.45197 -4.17834,14.79129 -18.88057,16.00903 l -3.77255,-8.64461 c 9.17719,-1.02147 13.3154,-3.56401 12.41017,-7.61422 -0.45039,-2.02064 -1.32887,-3.66659 -2.63544,-4.9334 -1.30656,-1.26234 -2.77366,-1.87344 -4.40576,-1.8556 -0.81159,0.007 -2.01113,0.0403 -2.85839,0.93672 l -16.35663,17.36951 0.11595,-0.025 c -2.02897,1.91359 -4.28537,3.25623 -6.76472,4.04129 -2.48382,0.78506 -9.58745,1.17313 -12.2095,1.16421 -2.61759,-0.0143 -5.24411,-0.41483 -7.87508,-1.20436 -2.63543,-0.78952 -5.07465,-2.0028 -7.31321,-3.61753 -2.24302,-1.61919 -4.16942,-3.5417 -5.76584,-5.76307 -1.60534,-2.22137 -2.72908,-4.75498 -3.3623,-7.6053 -2.25639,-10.12998 3.94646,-15.84399 18.63086,-17.13755 l 3.75025,8.52863 c -9.15044,1.17759 -13.17716,4.20633 -12.08464,9.07729 0.46376,2.10093 1.369,3.84502 2.6934,5.21442 1.33333,1.37832 2.77813,2.03848 4.32996,2.05632 0.98996,0.007 2.42584,-0.0489 3.6789,-1.11068 l 20.5305,-17.40519 c 1.95762,-1.65488 4.28982,-2.78787 6.80932,-3.57739 2.51949,-0.79398 5.13708,-1.1999 7.83048,-1.1999 2.62206,0.004 5.19952,0.38807 7.73684,1.11961 2.53733,0.73153 4.86507,1.80653 6.97877,3.21162 2.1137,1.40954 3.93308,3.14025 5.45369,5.17873 1.52062,2.04295 2.57746,4.41152 3.18393,7.11017 l 0.15161,0.67801 z m -90.30924,-50.99784 78.51,-0.13382 6.54176,29.25696 -10.42579,0.025 -3.57188,-15.98227 -10.1939,-0.0214 2.59084,11.59306 -10.42133,0.025 -2.5953,-11.59751 -37.30183,0.0214 3.57188,15.98227 -10.16269,0.0892 -6.54176,-29.26142 z m 71.19233,-32.88784 2.96988,13.27912 -68.35177,0.0446 3.57634,15.98227 -10.17161,0.0939 -6.53284,-29.26585 78.51,-0.13382 z m -86.00604,-33.40085 78.51,-0.13845 6.53729,29.26142 -10.42132,0.025 -3.57188,-15.98227 -10.1939,-0.0214 2.59084,11.59305 -10.42579,0.0214 -2.59084,-11.5886 -37.30183,0.0178 3.57188,15.98227 -10.16715,0.0849 -6.5373,-29.25696 z m 67.46883,-49.54369 2.10924,9.45198 -40.91385,12.4138 46.02418,10.4333 2.35896,10.5805 -78.51,0.13382 -2.98771,-13.39513 28.56611,-0.10705 -30.05551,-6.5303 -1.6321,-7.31981 24.96302,-6.89606 -26.50147,0.0357 -1.93532,-8.66691 78.51445,-0.13382 z m -6.21623,-27.80281 1.88628,8.44388 -75.00947,15.78155 -3.27757,-14.63072 14.29198,-3.05996 -2.41247,-10.80353 -15.65205,-3.01981 -1.88628,-8.44388 82.05958,15.73247 z m -53.76548,-2.24367 1.51616,6.75332 15.90623,-3.50602 -17.42239,-3.2473 z m 43.55374,-43.44608 2.96988,13.27916 -68.34731,0.0446 3.57188,15.98227 -10.16715,0.0892 -6.54175,-29.26142 78.51445,-0.13382 z m -81.30596,-32.72729 73.96154,-0.13846 6.54175,29.26588 -10.43024,0.0214 -3.56742,-15.98227 -10.1939,-0.0214 2.59084,11.59305 -10.42579,0.025 -2.58638,-11.59305 -47.46898,0.10705 1.57858,-13.27915 z m -56.67294,252.8124 78.8177,-0.1381 6.56851,29.3774 -10.47037,0.0214 -3.58526,-16.04471 -10.22512,-0.0179 2.5953,11.6332 -10.47038,0.025 -2.5953,-11.63766 -37.44899,0.0179 3.58526,16.04471 -10.20728,0.0846 -6.56407,-29.36847 z m 71.46882,-33.01723 2.97879,13.33268 -68.60594,0.0493 3.58079,16.04471 -10.19836,0.0846 -6.5685,-29.37294 78.81322,-0.1381 z m -6.21177,-27.78939 c 3.1973,14.31397 -2.50612,21.47321 -17.12808,21.48659 l -33.23943,0.0981 c -15.77244,0.007 -25.19494,-6.90944 -28.29414,-20.7729 l -3.4336,-15.36224 78.81322,-0.13382 3.28203,14.68424 z m -10.74686,-1.2222 -58.14449,0.025 0.4103,1.80653 c 1.1237,5.04492 6.1761,7.59638 15.13474,7.64098 l 33.61847,-0.0582 c 7.38902,-0.0214 10.51497,-2.55592 9.39124,-7.6053 l -0.41026,-1.81099 z m -38.01532,-47.71932 -41.01637,0.0446 -1.9398,-8.7026 78.82212,-0.13381 1.66331,7.45809 -38.57719,20.34026 43.12119,-0.004 1.86398,8.36359 -78.81321,0.13382 -1.592,-7.11909 36.46797,-20.3804 z m 29.56946,-36.92024 1.89519,8.47065 -75.29932,15.83953 -3.2865,-14.68424 14.3455,-3.06888 -2.4303,-10.84814 -15.7011,-3.03319 -1.8997,-8.47065 82.37623,15.79492 z m -53.96613,-2.25705 1.5161,6.77562 15.96424,-3.5194 -17.48034,-3.25622 z m 36.23159,-31.91101 c -0.82497,-3.69336 -5.6276,-5.50436 -14.39454,-5.42853 l -34.37655,-0.0214 c -7.4648,0.0357 -10.8004,2.02064 -10.0111,5.95488 0.8651,3.84056 6.0825,6.07531 15.6699,6.70425 l 0.1292,8.83642 c -15.282,-1.11069 -24.0445,-6.71318 -26.3008,-16.80302 -2.6756,-11.97666 3.2552,-17.96722 17.7925,-17.96276 l 34.11788,-0.0446 c 15.7457,-0.0849 24.95856,5.85675 27.63412,17.83341 1.50724,6.70426 -1.16833,12.06142 -7.98656,16.06256 l -7.21065,-8.56432 c 3.89295,-1.66826 5.53842,-3.8584 4.93642,-6.56598 z m 270.07603,-38.37439 c -1.7748,-7.9443 -12.55732,-11.89638 -32.34316,-11.86069 l -70.86234,0.15166 c -17.17713,0.0892 -24.90951,4.23755 -23.20161,12.42718 1.77033,7.9443 12.68664,11.9276 32.73554,11.95882 l 70.8622,-0.15166 c 17.0569,-0.0667 24.65979,-4.24201 22.80937,-12.52531 z"
       style="fill:none;stroke:#0000ff;stroke-width:0.17999998;stroke-linecap:butt;stroke-linejoin:miter;stroke-miterlimit:3.98458886;stroke-opacity:1;stroke-dasharray:none"
       id="path43677"
       inkscape:connector-curvature="0" />
    <g
       transform="translate(-24,26.710825)"
       id="g6385">
      <g
         style="stroke:#0000ff;stroke-width:2.05107546"
         id="g6155"
         transform="matrix(0,2.0947766,-2.0810681,0,240.31616,598.47516)"
         inkscape:label="Hershey Text">
        <g
           style="stroke:#0000ff;stroke-width:2.05107546"
           id="g6260">
          <path
             style="fill:none;stroke:#0000ff;stroke-width:0.47894761"
             d="m -6,-12 0,21 m 1,-20 0,19 m 1,-20 0,21 m -5,-21 12,0 3,1 1,1 1,2 0,2 -1,2 -1,1 -3,1 m 3,-8 1,2 0,2 -1,2 m -3,-8 2,1 1,2 0,4 -1,2 -2,1 m -7,0 7,0 3,1 L 7,0 8,2 8,5 7,7 6,8 3,9 -9,9 M 6,0 7,2 7,5 6,7 M 3,-2 5,-1 6,1 6,6 5,8 3,9 m -11,-21 2,1 m -1,-1 1,2 m 3,-2 -1,2 m 2,-2 -2,1 M -6,8 -8,9 m 2,-2 -1,2 m 3,-2 1,2 m -1,-1 2,1"
             transform="translate(11,0)"
             id="path6157"
             inkscape:connector-curvature="0" />
          <path
             style="fill:none;stroke:#0000ff;stroke-width:0.47894761"
             d="m -6,-12 0,21 m 1,-20 0,19 m 1,-20 0,21 m -5,-21 16,0 0,6 m -11,4 6,0 M 2,-6 2,2 M -9,9 7,9 7,3 m -15,-15 2,1 m -1,-1 1,2 m 3,-2 -1,2 m 2,-2 -2,1 m 6,-1 5,1 m -3,-1 3,2 m -2,-2 2,3 m -1,-3 1,6 m -5,0 -1,4 1,4 m 0,-6 -2,2 2,2 m 0,-3 -4,1 4,1 m -8,9 -2,1 m 2,-2 -1,2 m 3,-2 1,2 M -4,8 -2,9 M 2,9 7,8 M 4,9 7,7 M 5,9 7,6 M 6,9 7,3"
             transform="translate(33,0)"
             id="path6159"
             inkscape:connector-curvature="0" />
          <path
             style="fill:none;stroke:#0000ff;stroke-width:0.47894761"
             d="m -8,-12 0,6 m 7,-6 0,21 M 0,-11 0,8 M 1,-12 1,9 m 7,-21 0,6 m -16,-6 16,0 M -4,9 4,9 m -11,-21 -1,6 m 2,-6 -2,3 m 3,-3 -3,2 m 5,-2 -5,1 m 11,-1 5,1 m -3,-1 3,2 m -2,-2 2,3 m -1,-3 1,6 M -1,8 -3,9 M -1,7 -2,9 M 1,7 2,9 M 1,8 3,9"
             id="path6161"
             inkscape:connector-curvature="0"
             transform="translate(53,0)" />
          <path
             style="fill:none;stroke:#0000ff;stroke-width:0.47894761"
             d="M 0,-12 -7,8 M -1,-9 5,9 M 0,-9 6,9 M 0,-12 7,9 M -5,3 4,3 M -9,9 -3,9 M 2,9 9,9 M -7,8 -8,9 m 1,-1 2,1 M 5,8 3,9 M 5,7 4,9 M 6,7 8,9"
             transform="translate(73,0)"
             id="path6163"
             inkscape:connector-curvature="0" />
        </g>
      </g>
      <g
         style="stroke:#0000ff;stroke-width:2.05107546"
         inkscape:label="Hershey Text"
         transform="matrix(0,2.0947766,-2.0810681,0,240.31616,803.8968)"
         id="g6221">
        <path
           inkscape:connector-curvature="0"
           style="fill:none;stroke:#0000ff;stroke-width:0.47894761"
           d="m -7,-12 0,21 m 1,-20 0,19 m 1,-20 0,21 M 6,-11 -5,0 M -2,-2 5,9 M -1,-2 6,9 M -1,-4 7,9 m -17,-21 8,0 m 5,0 6,0 m -19,21 8,0 m 4,0 7,0 m -18,-21 2,1 m -1,-1 1,2 m 3,-2 -1,2 m 2,-2 -2,1 m 10,-1 1,1 m 2,-1 -2,1 M -7,8 -9,9 m 2,-2 -1,2 m 3,-2 1,2 M -5,8 -3,9 M 5,7 3,9 M 5,7 8,9"
           transform="translate(12,0)"
           id="path6223" />
        <path
           inkscape:connector-curvature="0"
           style="fill:none;stroke:#0000ff;stroke-width:0.47894761"
           d="M -1,-12 -1,9 M 0,-11 0,8 M 1,-12 1,9 m -5,-21 8,0 M -4,9 4,9 m -7,-21 2,1 m -1,-1 1,2 m 3,-2 -1,2 m 2,-2 -2,1 M -1,8 -3,9 M -1,7 -2,9 M 1,7 2,9 M 1,8 3,9"
           transform="translate(28,0)"
           id="path6225" />
        <path
           inkscape:connector-curvature="0"
           style="fill:none;stroke:#0000ff;stroke-width:0.47894761"
           d="m -8,-12 0,6 m 7,-6 0,21 M 0,-11 0,8 M 1,-12 1,9 m 7,-21 0,6 m -16,-6 16,0 M -4,9 4,9 m -11,-21 -1,6 m 2,-6 -2,3 m 3,-3 -3,2 m 5,-2 -5,1 m 11,-1 5,1 m -3,-1 3,2 m -2,-2 2,3 m -1,-3 1,6 M -1,8 -3,9 M -1,7 -2,9 M 1,7 2,9 M 1,8 3,9"
           transform="translate(44,0)"
           id="path6227" />
      </g>
    </g>
    <rect
       style="fill:none;stroke:#000000;stroke-width:0.09000000000000000;stroke-linecap:butt;stroke-linejoin:miter;stroke-miterlimit:4;stroke-opacity:1;stroke-dasharray:none;stroke-dashoffset:0"
       id="rect6268"
       width="4.0489268"
       height="2.6992846"
       x="0"
       y="-1.2065302"
       transform="translate(0,512.35975)" />
    <path
       inkscape:connector-curvature="0"
       id="path43655"
       style="fill:none;stroke:#0000ff;stroke-width:0.17999998;stroke-linecap:butt;stroke-linejoin:miter;stroke-miterlimit:3.98458886;stroke-opacity:1;stroke-dasharray:none"
       d="m 703.24832,835.08368 c 0,0 13.79371,17.56926 30.4157,8.63215 11.32579,-6.09292 12.21767,-7.72341 24.58839,-5.83154 0,0 -9.55427,-11.31454 -26.8853,-13.74795 -17.33063,-2.4334 -28.11879,10.94734 -28.11879,10.94734 z" />
    <g
       id="g9773"
       transform="matrix(0,0.87063224,-0.86476649,0,150.91135,584.00304)"
       inkscape:label="Hershey Text"
       style="stroke:#0000ff;stroke-width:1.15247953">
      <path
         id="path9775"
         transform="translate(4,0)"
         d="M 0,-12 0,9"
         style="fill:none;stroke:#0000ff;stroke-width:1.15247953"
         inkscape:connector-curvature="0" />
      <path
         id="path9777"
         transform="translate(19,0)"
         d="M -7,-12 -7,9 M -7,-12 7,9 M 7,-12 7,9"
         style="fill:none;stroke:#0000ff;stroke-width:1.15247953"
         inkscape:connector-curvature="0" />
      <path
         id="path9779"
         transform="translate(40,0)"
         d="m 7,-9 -2,-2 -3,-1 -4,0 -3,1 -2,2 0,2 1,2 1,1 2,1 6,2 L 5,0 6,1 7,3 7,6 5,8 2,9 -2,9 -5,8 -7,6"
         style="fill:none;stroke:#0000ff;stroke-width:1.15247953"
         inkscape:connector-curvature="0" />
      <path
         id="path9781"
         transform="translate(58,0)"
         d="M 0,-12 0,9 m -7,-21 14,0"
         style="fill:none;stroke:#0000ff;stroke-width:1.15247953"
         inkscape:connector-curvature="0" />
      <path
         id="path9783"
         transform="translate(77,0)"
         d="m -7,-12 0,21 m 0,-21 9,0 3,1 1,1 1,2 0,2 -1,2 -1,1 -3,1 -9,0 m 7,0 7,11"
         style="fill:none;stroke:#0000ff;stroke-width:1.15247953"
         inkscape:connector-curvature="0" />
      <path
         id="path9785"
         transform="translate(98,0)"
         d="m -7,-12 0,15 1,3 2,2 3,1 L 1,9 4,8 6,6 7,3 7,-12"
         style="fill:none;stroke:#0000ff;stroke-width:1.15247953"
         inkscape:connector-curvature="0" />
      <path
         id="path9787"
         transform="translate(119,0)"
         d="m 8,-7 -1,-2 -2,-2 -2,-1 -4,0 -2,1 -2,2 -1,2 -1,3 0,5 1,3 1,2 2,2 2,1 L 3,9 5,8 7,6 8,4"
         style="fill:none;stroke:#0000ff;stroke-width:1.15247953"
         inkscape:connector-curvature="0" />
      <path
         id="path9789"
         transform="translate(138,0)"
         d="M 0,-12 0,9 m -7,-21 14,0"
         style="fill:none;stroke:#0000ff;stroke-width:1.15247953"
         inkscape:connector-curvature="0" />
      <path
         id="path9791"
         transform="translate(150,0)"
         d="M 0,-12 0,9"
         style="fill:none;stroke:#0000ff;stroke-width:1.15247953"
         inkscape:connector-curvature="0" />
      <path
         id="path9793"
         transform="translate(165,0)"
         d="m -2,-12 -2,1 -2,2 -1,2 -1,3 0,5 1,3 1,2 2,2 2,1 L 2,9 4,8 6,6 7,4 8,1 8,-4 7,-7 6,-9 l -2,-2 -2,-1 -4,0"
         style="fill:none;stroke:#0000ff;stroke-width:1.15247953"
         inkscape:connector-curvature="0" />
      <path
         id="path9795"
         transform="translate(187,0)"
         d="M -7,-12 -7,9 M -7,-12 7,9 M 7,-12 7,9"
         style="fill:none;stroke:#0000ff;stroke-width:1.15247953"
         inkscape:connector-curvature="0" />
      <path
         id="path9797"
         transform="translate(208,0)"
         d="m 7,-9 -2,-2 -3,-1 -4,0 -3,1 -2,2 0,2 1,2 1,1 2,1 6,2 L 5,0 6,1 7,3 7,6 5,8 2,9 -2,9 -5,8 -7,6"
         style="fill:none;stroke:#0000ff;stroke-width:1.15247953"
         inkscape:connector-curvature="0" />
      <path
         id="path9799"
         transform="translate(226,0)"
         d=""
         style="fill:none;stroke:#0000ff;stroke-width:1.15247953"
         inkscape:connector-curvature="0" />
      <path
         id="path9801"
         transform="translate(243,0)"
         d="M 0,-12 -8,9 M 0,-12 8,9 M -5,2 5,2"
         style="fill:none;stroke:#0000ff;stroke-width:1.15247953"
         inkscape:connector-curvature="0" />
      <path
         id="path9803"
         transform="translate(260,0)"
         d="M 0,-12 0,9 m -7,-21 14,0"
         style="fill:none;stroke:#0000ff;stroke-width:1.15247953"
         inkscape:connector-curvature="0" />
      <path
         id="path9805"
         transform="translate(276,0)"
         d=""
         style="fill:none;stroke:#0000ff;stroke-width:1.15247953"
         inkscape:connector-curvature="0" />
      <path
         id="path9807"
         transform="translate(295,0)"
         d="m -2,-12 -2,1 -2,2 -1,2 -1,3 0,5 1,3 1,2 2,2 2,1 L 2,9 4,8 6,6 7,4 8,1 8,-4 7,-7 6,-9 l -2,-2 -2,-1 -4,0"
         style="fill:none;stroke:#0000ff;stroke-width:1.15247953"
         inkscape:connector-curvature="0" />
      <path
         id="path9809"
         transform="translate(316,0)"
         d="m 8,-7 -1,-2 -2,-2 -2,-1 -4,0 -2,1 -2,2 -1,2 -1,3 0,5 1,3 1,2 2,2 2,1 L 3,9 5,8 7,6 8,4 8,1 M 3,1 8,1"
         style="fill:none;stroke:#0000ff;stroke-width:1.15247953"
         inkscape:connector-curvature="0" />
      <path
         id="path9811"
         transform="translate(338,0)"
         d="M -7,-12 -7,9 M -7,-12 7,9 M 7,-12 7,9"
         style="fill:none;stroke:#0000ff;stroke-width:1.15247953"
         inkscape:connector-curvature="0" />
      <path
         id="path9813"
         transform="translate(353,0)"
         d="M 0,-12 0,9"
         style="fill:none;stroke:#0000ff;stroke-width:1.15247953"
         inkscape:connector-curvature="0" />
      <path
         id="path9815"
         transform="translate(365,0)"
         d="M 0,-12 0,9 m -7,-21 14,0"
         style="fill:none;stroke:#0000ff;stroke-width:1.15247953"
         inkscape:connector-curvature="0" />
      <path
         id="path9817"
         transform="translate(383,0)"
         d="m -6,-12 0,21 m 0,-21 13,0 M -6,-2 2,-2 M -6,9 7,9"
         style="fill:none;stroke:#0000ff;stroke-width:1.15247953"
         inkscape:connector-curvature="0" />
      <path
         id="path9819"
         transform="translate(396,0)"
         d="M 0,4 -1,5 0,6 1,5 0,4"
         style="fill:none;stroke:#0000ff;stroke-width:1.15247953"
         inkscape:connector-curvature="0" />
      <path
         id="path9821"
         transform="translate(410,0)"
         d="m 8,-7 -1,-2 -2,-2 -2,-1 -4,0 -2,1 -2,2 -1,2 -1,3 0,5 1,3 1,2 2,2 2,1 L 3,9 5,8 7,6 8,4"
         style="fill:none;stroke:#0000ff;stroke-width:1.15247953"
         inkscape:connector-curvature="0" />
      <path
         id="path9823"
         transform="translate(432,0)"
         d="m -2,-12 -2,1 -2,2 -1,2 -1,3 0,5 1,3 1,2 2,2 2,1 L 2,9 4,8 6,6 7,4 8,1 8,-4 7,-7 6,-9 l -2,-2 -2,-1 -4,0"
         style="fill:none;stroke:#0000ff;stroke-width:1.15247953"
         inkscape:connector-curvature="0" />
      <path
         id="path9825"
         transform="translate(455,0)"
         d="M -8,-12 -8,9 M -8,-12 0,9 M 8,-12 0,9 M 8,-12 8,9"
         style="fill:none;stroke:#0000ff;stroke-width:1.15247953"
         inkscape:connector-curvature="0" />
    </g>
  </g>
</svg>
