<?xml version="1.0" encoding="UTF-8" standalone="no"?>
<!-- Created with Inkscape (http://www.inkscape.org/) -->

<svg
   xmlns:dc="http://purl.org/dc/elements/1.1/"
   xmlns:cc="http://creativecommons.org/ns#"
   xmlns:rdf="http://www.w3.org/1999/02/22-rdf-syntax-ns#"
   xmlns:svg="http://www.w3.org/2000/svg"
   xmlns="http://www.w3.org/2000/svg"
   xmlns:sodipodi="http://sodipodi.sourceforge.net/DTD/sodipodi-0.dtd"
   xmlns:inkscape="http://www.inkscape.org/namespaces/inkscape"
   width="585"
   height="315"
   id="svg2985"
   version="1.1"
   inkscape:version="0.48.4 r9939"
   sodipodi:docname="beta kit envelope.svg">
  <sodipodi:namedview
     id="base"
     pagecolor="#ffffff"
     bordercolor="#666666"
     borderopacity="1.0"
     inkscape:pageopacity="0.0"
     inkscape:pageshadow="2"
     inkscape:zoom="0.70424925"
     inkscape:cx="379.13995"
     inkscape:cy="197.81331"
     inkscape:document-units="in"
     inkscape:current-layer="layer1"
     showgrid="false"
     units="in"
     inkscape:window-width="1366"
     inkscape:window-height="705"
     inkscape:window-x="-8"
     inkscape:window-y="-8"
     inkscape:window-maximized="1"
     inkscape:object-paths="true" />
  <defs
     id="defs2987" />
  <metadata
     id="metadata2990">
    <rdf:RDF>
      <cc:Work
         rdf:about="">
        <dc:format>image/svg+xml</dc:format>
        <dc:type
           rdf:resource="http://purl.org/dc/dcmitype/StillImage" />
        <dc:title></dc:title>
      </cc:Work>
    </rdf:RDF>
  </metadata>
  <g
     inkscape:label="Layer 1"
     inkscape:groupmode="layer"
     id="layer1"
     transform="translate(0,-737.35975)">
    <path
       d="m 359.98054,970.68878 75.5827,-0.13334 6.29915,28.16446 -10.03794,0.025 -3.44061,-15.38259 -9.81085,-0.0229 2.49814,11.15791 -10.04068,0.0255 -2.4954,-11.15791 -35.90772,0.0204 3.43777,15.38259 -9.78813,0.085 -6.29643,-28.16446 z m 67.68792,-35.44692 6.92664,30.98092 -10.28481,-0.0369 -1.98715,-8.88376 -65.29777,0.17033 -2.88137,-12.88976 65.29766,-0.17332 -2.058,-9.20741 10.2848,0.0395 z m -3.7045,-16.57504 2.68822,12.02387 -75.58259,0.13354 -2.68833,-12.02385 75.5827,-0.13333 z m -43.61229,-32.84337 -39.33422,0.0454 -1.86224,-8.34145 75.57974,-0.13356 1.60108,7.14901 -36.99213,19.50502 41.34978,-0.004 1.79411,8.01779 -75.58554,0.13059 -1.52442,-6.8225 34.97384,-19.54477 z m -3.13686,-31.98598 3.94875,17.65674 -43.34258,0.0738 -1.57269,-7.04112 1.74018,-1.71769 c -0.99358,-0.92841 -1.83102,-1.94766 -2.51233,-3.0521 -0.68131,-1.10727 -1.18945,-2.41896 -1.53011,-3.93507 -2.56626,-11.48156 3.12267,-17.22234 17.06395,-17.2195 l 32.71701,-0.0425 c 15.10236,-0.0822 23.93666,5.61586 26.50292,17.09742 1.43916,6.4307 -1.11575,11.5639 -7.66199,15.40244 l -6.91528,-8.21085 c 3.73879,-1.59845 5.31716,-3.69943 4.73804,-6.30009 -0.79213,-3.5376 -5.39664,-5.27232 -13.80787,-5.20419 l -32.96683,-0.0204 c -7.15942,0.0368 -10.35589,1.94199 -9.59225,5.70956 0.2271,1.01073 0.81189,1.78015 1.7572,2.30256 0.94532,0.52524 2.14897,0.90001 3.61661,1.12714 l 19.37188,-0.0204 -1.47617,-6.60672 9.92156,0 z m -53.6417,-43.35964 c -3.35828,-15.01916 3.86075,-22.54577 21.65426,-22.57984 l 44.74494,-0.13923 c 19.28674,-0.0368 30.60214,7.42156 33.94328,22.36974 3.36112,15.01915 -3.85508,22.5486 -21.64858,22.57984 l -44.7477,0.13628 c -19.28954,0.0397 -30.60211,-7.41873 -33.9462,-22.3669 z m 98.24745,61.20377 36.12072,-0.0595 3.00911,13.46046 -4.7946,0.0114 -1.64376,-7.35342 -4.68968,-0.009 1.19229,5.33194 -4.79755,0.0113 -1.19229,-5.33194 -17.16035,0.009 1.64354,7.35059 -4.67831,0.0425 -3.00912,-13.46329 z m 31.71492,-19.78611 1.37397,6.16098 -9.48427,0 0.96224,4.29848 9.4845,0 1.36534,6.10704 -36.12072,0.0624 -1.36829,-6.10703 21.84162,-0.0511 -0.96224,-4.29565 -21.83889,0.0481 -1.3767,-6.16097 36.12344,-0.0624 z m 7.03451,-19.04508 4.26954,19.1047 -4.95925,0.0425 -1.3172,-5.90261 -42.44848,0.0654 -1.57269,-7.04112 42.44553,-0.0654 -1.3767,-6.15814 4.95925,-0.0454 z M 351.81336,987.74074 c 1.34558,6.01619 -2.66279,9.41179 -12.02226,10.18972 l -2.40162,-5.50228 c 5.84506,-0.65012 8.47662,-2.26849 7.90318,-4.84644 -0.28955,-1.28897 -0.85163,-2.33659 -1.68056,-3.13724 -0.82893,-0.80352 -1.76289,-1.19815 -2.80188,-1.18396 -0.5195,0.006 -1.215,0.0909 -1.8225,0.59621 l -13.30823,11.05288 0.0738,-0.0178 c -1.29165,1.21801 -2.72807,2.07544 -4.30928,2.57509 -1.57836,0.49685 -3.20783,0.74388 -4.87135,0.73818 -1.66921,-0.01 -3.3441,-0.26119 -5.01614,-0.76657 -1.67488,-0.50538 -3.2277,-1.27192 -4.65561,-2.30254 -1.42507,-1.02775 -2.65427,-2.25429 -3.67055,-3.66821 -1.01913,-1.41105 -1.7345,-3.02655 -2.13761,-4.84077 -1.43926,-6.44488 2.51233,-10.08184 11.86045,-10.90521 l 2.38458,5.43131 c -5.82235,0.74674 -8.38861,2.67451 -7.69594,5.7777 0.3009,1.33442 0.87434,2.44168 1.7203,3.31617 0.84595,0.87442 1.76572,1.2975 2.75362,1.30883 0.62737,0.007 1.54714,-0.0344 2.342,-0.70696 l 13.07261,-11.08121 c 1.24339,-1.05334 2.72523,-1.77163 4.33198,-2.27701 1.60676,-0.50252 3.27029,-0.76374 4.98775,-0.76094 1.66637,0 3.31003,0.24417 4.9253,0.70983 1.61243,0.46846 3.09427,1.14984 4.43986,2.04705 1.34558,0.89428 2.50381,1.99593 3.47183,3.29337 0.96519,1.30037 1.64082,2.81079 2.02689,4.52851 l 0.0992,0.43154 z m -5.65487,-25.28839 c 1.34843,6.01619 -2.65994,9.41466 -12.01942,10.18972 l -2.40161,-5.50228 c 5.84222,-0.65012 8.47661,-2.26849 7.90034,-4.84644 -0.28672,-1.28611 -0.84596,-2.33379 -1.67773,-3.14011 -0.83175,-0.80345 -1.76571,-1.19242 -2.80471,-1.18109 -0.51666,0.006 -1.28029,0.0255 -1.81966,0.59621 l -10.41267,11.05569 0.0738,-0.0159 c -1.29165,1.21801 -2.72808,2.07264 -4.30644,2.57229 -1.5812,0.49972 -6.10339,0.74674 -7.7726,0.74101 -1.66636,-0.009 -3.33841,-0.26402 -5.01329,-0.76653 -1.67773,-0.50252 -3.23054,-1.27479 -4.65561,-2.30261 -1.42791,-1.03055 -2.65427,-2.25429 -3.67055,-3.66814 -1.02196,-1.41392 -1.73734,-3.02656 -2.14045,-4.84077 -1.43642,-6.44775 2.51233,-10.08471 11.86045,-10.90808 l 2.38742,5.42851 c -5.82519,0.74948 -8.38861,2.67731 -7.69311,5.77764 0.29523,1.33728 0.87151,2.4474 1.71462,3.31903 0.84881,0.87728 1.76857,1.29744 2.75647,1.30883 0.63021,0.006 1.54429,-0.0312 2.342,-0.70696 l 13.06976,-11.07841 c 1.24623,-1.05334 2.73092,-1.77449 4.33484,-2.27701 1.60391,-0.50538 3.27027,-0.76374 4.9849,-0.76374 1.66921,0 3.31003,0.24703 4.92529,0.71263 1.61527,0.46566 3.09712,1.1499 4.4427,2.04425 1.34559,0.89714 2.50381,1.99873 3.47184,3.29624 0.96803,1.3003 1.64082,2.80792 2.0269,4.52564 l 0.0965,0.43154 z m -57.49109,-32.46009 49.97966,-0.0852 4.16451,18.62208 -6.63709,0.0159 -2.27387,-10.17273 -6.48946,-0.0134 1.64934,7.37901 -6.63425,0.0159 -1.65217,-7.3818 -23.74645,0.0134 2.27387,10.17273 -6.46959,0.0566 -4.1645,-18.62494 z m 45.32122,-20.93313 1.89063,8.45216 -43.51291,0.0284 2.2767,10.1727 -6.47527,0.0598 -4.15882,-18.6277 49.97967,-0.0852 z m -54.75167,-21.25963 49.97967,-0.0881 4.16165,18.62488 -6.63423,0.0159 -2.27387,-10.17271 -6.48947,-0.0136 1.64934,7.37897 -6.63709,0.0136 -1.64933,-7.37614 -23.74644,0.0113 2.27387,10.17271 -6.47244,0.054 -4.16166,-18.62205 z m 42.95083,-31.53454 1.34275,6.01618 -26.04586,7.90138 29.29911,6.64079 1.50172,6.73449 -49.97967,0.0852 -1.90198,-8.52599 18.18526,-0.0681 -19.13342,-4.15653 -1.039,-4.65906 15.89152,-4.38934 -16.8709,0.0227 -1.23203,-5.51649 49.9825,-0.0852 z m -3.95727,-17.69649 1.20081,5.37453 -47.75122,10.04495 -2.08651,-9.31245 9.09831,-1.94766 -1.53578,-6.87644 -9.96414,-1.92211 -1.20081,-5.37453 52.23934,10.01371 z m -34.22724,-1.42809 0.96519,4.29848 10.12595,-2.23158 -11.09114,-2.0669 z m 27.72642,-27.65342 1.89064,8.45218 -43.51008,0.0284 2.27387,10.17271 -6.47243,0.0568 -4.1645,-18.62489 49.9825,-0.0852 z m -51.75958,-20.83091 47.08411,-0.0881 4.16449,18.62772 -6.63992,0.0136 -2.27103,-10.17271 -6.48946,-0.0136 1.64934,7.37898 -6.63709,0.0159 -1.64649,-7.37898 -30.21888,0.0681 1.00493,-8.45217 z m -36.07814,160.91501 50.17555,-0.0879 4.18153,18.6987 -6.66546,0.0134 -2.28239,-10.21245 -6.50934,-0.0114 1.65218,7.40453 -6.66547,0.0159 -1.65218,-7.40733 -23.84012,0.0115 2.28238,10.21244 -6.49798,0.0541 -4.1787,-18.69305 z m 45.49723,-21.01544 1.89631,8.48626 -43.67472,0.0312 2.27954,10.21244 -6.4923,0.0541 -4.18152,-18.69585 50.17269,-0.0879 z m -3.95442,-17.68794 c 2.03541,9.11084 -1.59541,13.66768 -10.90378,13.67621 l -21.16031,0.0624 c -10.04078,0.006 -16.03916,-4.39785 -18.01212,-13.22194 l -2.18584,-9.77806 50.1727,-0.0852 2.08935,9.34652 z m -6.84148,-0.77793 -37.01494,0.0159 0.2612,1.14986 c 0.71535,3.21109 3.93172,4.83509 9.63482,4.86348 l 21.4016,-0.0371 c 4.70387,-0.0136 6.69386,-1.62684 5.97849,-4.84077 l -0.26117,-1.15269 z m -24.20065,-30.37334 -26.11113,0.0284 -1.23488,-5.5392 50.17836,-0.0852 1.05887,4.74707 -24.55834,12.94657 27.45106,-0.003 1.18662,5.32342 -50.1727,0.0852 -1.01347,-4.53129 23.21561,-12.97212 z m 18.82399,-23.49972 1.20648,5.39157 -47.93574,10.08185 -2.09219,-9.34651 9.13238,-1.95334 -1.54714,-6.90484 -9.99536,-1.93063 -1.20935,-5.39156 52.44092,10.05346 z m -34.35498,-1.43661 0.96516,4.31268 10.16287,-2.2401 -11.12803,-2.07258 z m 23.06513,-20.31135 c -0.52518,-2.35082 -3.58255,-3.50353 -9.1636,-3.45526 l -21.8842,-0.0136 c -4.75212,0.0227 -6.87557,1.28614 -6.3731,3.79028 0.55073,2.44451 3.87214,3.86693 9.9755,4.26725 l 0.0822,5.62438 c -9.72856,-0.70695 -15.30679,-4.27294 -16.74316,-10.69512 -1.70329,-7.62314 2.07227,-11.43613 11.32676,-11.43329 l 21.71953,-0.0284 c 10.02375,-0.054 15.88868,3.72782 17.59195,11.35096 0.95951,4.26726 -0.74376,7.67709 -5.08427,10.22382 l -4.59032,-5.45119 c 2.47827,-1.06185 3.52578,-2.45587 3.14254,-4.17924 z m 171.93109,-24.42529 c -1.12984,-5.05655 -7.99402,-7.57204 -20.58973,-7.54933 l -45.11115,0.0965 c -10.93501,0.0568 -15.85746,2.6972 -14.77021,7.9099 1.127,5.05655 8.07635,7.59191 20.83953,7.61179 l 45.11106,-0.0965 c 10.85847,-0.0425 15.69849,-2.70003 14.5205,-7.97235 z"
       style="fill:none;stroke:#0000ff;stroke-width:0.17999996;stroke-linecap:butt;stroke-linejoin:miter;stroke-miterlimit:3.98458886;stroke-opacity:1;stroke-dasharray:none"
       id="path43677"
       inkscape:connector-curvature="0" />
    <g
       transform="matrix(0.63660258,0,0,0.63649975,-30.854779,411.00179)"
       id="g6385">
      <g
         style="stroke:#0000ff;stroke-width:3.22216892"
         id="g6155"
         transform="matrix(0,2.0947766,-2.0810681,0,240.31616,598.47516)"
         inkscape:label="Hershey Text">
        <g
           style="stroke:#0000ff;stroke-width:3.22216892"
           id="g6260">
          <path
             style="fill:none;stroke:#0000ff;stroke-width:0.75241023"
             d="m -6,-12 0,21 m 1,-20 0,19 m 1,-20 0,21 m -5,-21 12,0 3,1 1,1 1,2 0,2 -1,2 -1,1 -3,1 m 3,-8 1,2 0,2 -1,2 m -3,-8 2,1 1,2 0,4 -1,2 -2,1 m -7,0 7,0 3,1 L 7,0 8,2 8,5 7,7 6,8 3,9 -9,9 M 6,0 7,2 7,5 6,7 M 3,-2 5,-1 6,1 6,6 5,8 3,9 m -11,-21 2,1 m -1,-1 1,2 m 3,-2 -1,2 m 2,-2 -2,1 M -6,8 -8,9 m 2,-2 -1,2 m 3,-2 1,2 m -1,-1 2,1"
             transform="translate(11,0)"
             id="path6157"
             inkscape:connector-curvature="0" />
          <path
             style="fill:none;stroke:#0000ff;stroke-width:0.75241023"
             d="m -6,-12 0,21 m 1,-20 0,19 m 1,-20 0,21 m -5,-21 16,0 0,6 m -11,4 6,0 M 2,-6 2,2 M -9,9 7,9 7,3 m -15,-15 2,1 m -1,-1 1,2 m 3,-2 -1,2 m 2,-2 -2,1 m 6,-1 5,1 m -3,-1 3,2 m -2,-2 2,3 m -1,-3 1,6 m -5,0 -1,4 1,4 m 0,-6 -2,2 2,2 m 0,-3 -4,1 4,1 m -8,9 -2,1 m 2,-2 -1,2 m 3,-2 1,2 M -4,8 -2,9 M 2,9 7,8 M 4,9 7,7 M 5,9 7,6 M 6,9 7,3"
             transform="translate(33,0)"
             id="path6159"
             inkscape:connector-curvature="0" />
          <path
             style="fill:none;stroke:#0000ff;stroke-width:0.75241023"
             d="m -8,-12 0,6 m 7,-6 0,21 M 0,-11 0,8 M 1,-12 1,9 m 7,-21 0,6 m -16,-6 16,0 M -4,9 4,9 m -11,-21 -1,6 m 2,-6 -2,3 m 3,-3 -3,2 m 5,-2 -5,1 m 11,-1 5,1 m -3,-1 3,2 m -2,-2 2,3 m -1,-3 1,6 M -1,8 -3,9 M -1,7 -2,9 M 1,7 2,9 M 1,8 3,9"
             id="path6161"
             inkscape:connector-curvature="0"
             transform="translate(53,0)" />
          <path
             style="fill:none;stroke:#0000ff;stroke-width:0.75241023"
             d="M 0,-12 -7,8 M -1,-9 5,9 M 0,-9 6,9 M 0,-12 7,9 M -5,3 4,3 M -9,9 -3,9 M 2,9 9,9 M -7,8 -8,9 m 1,-1 2,1 M 5,8 3,9 M 5,7 4,9 M 6,7 8,9"
             transform="translate(73,0)"
             id="path6163"
             inkscape:connector-curvature="0" />
        </g>
      </g>
      <g
         style="stroke:#0000ff;stroke-width:3.22216892"
         inkscape:label="Hershey Text"
         transform="matrix(0,2.0947766,-2.0810681,0,240.31616,803.8968)"
         id="g6221">
        <path
           inkscape:connector-curvature="0"
           style="fill:none;stroke:#0000ff;stroke-width:0.75241023"
           d="m -7,-12 0,21 m 1,-20 0,19 m 1,-20 0,21 M 6,-11 -5,0 M -2,-2 5,9 M -1,-2 6,9 M -1,-4 7,9 m -17,-21 8,0 m 5,0 6,0 m -19,21 8,0 m 4,0 7,0 m -18,-21 2,1 m -1,-1 1,2 m 3,-2 -1,2 m 2,-2 -2,1 m 10,-1 1,1 m 2,-1 -2,1 M -7,8 -9,9 m 2,-2 -1,2 m 3,-2 1,2 M -5,8 -3,9 M 5,7 3,9 M 5,7 8,9"
           transform="translate(12,0)"
           id="path6223" />
        <path
           inkscape:connector-curvature="0"
           style="fill:none;stroke:#0000ff;stroke-width:0.75241023"
           d="M -1,-12 -1,9 M 0,-11 0,8 M 1,-12 1,9 m -5,-21 8,0 M -4,9 4,9 m -7,-21 2,1 m -1,-1 1,2 m 3,-2 -1,2 m 2,-2 -2,1 M -1,8 -3,9 M -1,7 -2,9 M 1,7 2,9 M 1,8 3,9"
           transform="translate(28,0)"
           id="path6225" />
        <path
           inkscape:connector-curvature="0"
           style="fill:none;stroke:#0000ff;stroke-width:0.75241023"
           d="m -8,-12 0,6 m 7,-6 0,21 M 0,-11 0,8 M 1,-12 1,9 m 7,-21 0,6 m -16,-6 16,0 M -4,9 4,9 m -11,-21 -1,6 m 2,-6 -2,3 m 3,-3 -3,2 m 5,-2 -5,1 m 11,-1 5,1 m -3,-1 3,2 m -2,-2 2,3 m -1,-3 1,6 M -1,8 -3,9 M -1,7 -2,9 M 1,7 2,9 M 1,8 3,9"
           transform="translate(44,0)"
           id="path6227" />
      </g>
    </g>
    <rect
       style="fill:none;stroke:#000000;stroke-width:0.09;stroke-linecap:butt;stroke-linejoin:miter;stroke-miterlimit:4;stroke-opacity:1;stroke-dasharray:none;stroke-dashoffset:0"
       id="rect6268"
       width="2.5775573"
       height="1.718094"
       x="0.42368221"
       y="737.34924" />
    <path
       inkscape:connector-curvature="0"
       id="path43655"
       style="fill:none;stroke:#0000ff;stroke-width:0.17999996;stroke-linecap:butt;stroke-linejoin:miter;stroke-miterlimit:3.98458886;stroke-opacity:1;stroke-dasharray:none"
       d="m 432.11338,925.53091 c 0,0 8.78111,11.18285 19.36271,5.49439 7.21003,-3.87819 7.7778,-4.91601 15.65304,-3.71181 0,0 -6.08228,-7.2017 -17.11526,-8.75056 -11.03272,-1.54886 -17.90049,6.96798 -17.90049,6.96798 z" />
    <g
       id="g9773"
       transform="matrix(0,0.55415721,-0.55051258,0,80.494239,765.71814)"
       inkscape:label="Hershey Text"
       style="stroke:#0000ff;stroke-width:1.81050575">
      <path
         id="path9775"
         transform="translate(4,0)"
         d="M 0,-12 0,9"
         style="fill:none;stroke:#0000ff;stroke-width:1.81050575"
         inkscape:connector-curvature="0" />
      <path
         id="path9777"
         transform="translate(19,0)"
         d="M -7,-12 -7,9 M -7,-12 7,9 M 7,-12 7,9"
         style="fill:none;stroke:#0000ff;stroke-width:1.81050575"
         inkscape:connector-curvature="0" />
      <path
         id="path9779"
         transform="translate(40,0)"
         d="m 7,-9 -2,-2 -3,-1 -4,0 -3,1 -2,2 0,2 1,2 1,1 2,1 6,2 L 5,0 6,1 7,3 7,6 5,8 2,9 -2,9 -5,8 -7,6"
         style="fill:none;stroke:#0000ff;stroke-width:1.81050575"
         inkscape:connector-curvature="0" />
      <path
         id="path9781"
         transform="translate(58,0)"
         d="M 0,-12 0,9 m -7,-21 14,0"
         style="fill:none;stroke:#0000ff;stroke-width:1.81050575"
         inkscape:connector-curvature="0" />
      <path
         id="path9783"
         transform="translate(77,0)"
         d="m -7,-12 0,21 m 0,-21 9,0 3,1 1,1 1,2 0,2 -1,2 -1,1 -3,1 -9,0 m 7,0 7,11"
         style="fill:none;stroke:#0000ff;stroke-width:1.81050575"
         inkscape:connector-curvature="0" />
      <path
         id="path9785"
         transform="translate(98,0)"
         d="m -7,-12 0,15 1,3 2,2 3,1 L 1,9 4,8 6,6 7,3 7,-12"
         style="fill:none;stroke:#0000ff;stroke-width:1.81050575"
         inkscape:connector-curvature="0" />
      <path
         id="path9787"
         transform="translate(119,0)"
         d="m 8,-7 -1,-2 -2,-2 -2,-1 -4,0 -2,1 -2,2 -1,2 -1,3 0,5 1,3 1,2 2,2 2,1 L 3,9 5,8 7,6 8,4"
         style="fill:none;stroke:#0000ff;stroke-width:1.81050575"
         inkscape:connector-curvature="0" />
      <path
         id="path9789"
         transform="translate(138,0)"
         d="M 0,-12 0,9 m -7,-21 14,0"
         style="fill:none;stroke:#0000ff;stroke-width:1.81050575"
         inkscape:connector-curvature="0" />
      <path
         id="path9791"
         transform="translate(150,0)"
         d="M 0,-12 0,9"
         style="fill:none;stroke:#0000ff;stroke-width:1.81050575"
         inkscape:connector-curvature="0" />
      <path
         id="path9793"
         transform="translate(165,0)"
         d="m -2,-12 -2,1 -2,2 -1,2 -1,3 0,5 1,3 1,2 2,2 2,1 L 2,9 4,8 6,6 7,4 8,1 8,-4 7,-7 6,-9 l -2,-2 -2,-1 -4,0"
         style="fill:none;stroke:#0000ff;stroke-width:1.81050575"
         inkscape:connector-curvature="0" />
      <path
         id="path9795"
         transform="translate(187,0)"
         d="M -7,-12 -7,9 M -7,-12 7,9 M 7,-12 7,9"
         style="fill:none;stroke:#0000ff;stroke-width:1.81050575"
         inkscape:connector-curvature="0" />
      <path
         id="path9797"
         transform="translate(208,0)"
         d="m 7,-9 -2,-2 -3,-1 -4,0 -3,1 -2,2 0,2 1,2 1,1 2,1 6,2 L 5,0 6,1 7,3 7,6 5,8 2,9 -2,9 -5,8 -7,6"
         style="fill:none;stroke:#0000ff;stroke-width:1.81050575"
         inkscape:connector-curvature="0" />
      <path
         id="path9799"
         transform="translate(226,0)"
         d=""
         style="fill:none;stroke:#0000ff;stroke-width:1.81050575"
         inkscape:connector-curvature="0" />
      <path
         id="path9801"
         transform="translate(243,0)"
         d="M 0,-12 -8,9 M 0,-12 8,9 M -5,2 5,2"
         style="fill:none;stroke:#0000ff;stroke-width:1.81050575"
         inkscape:connector-curvature="0" />
      <path
         id="path9803"
         transform="translate(260,0)"
         d="M 0,-12 0,9 m -7,-21 14,0"
         style="fill:none;stroke:#0000ff;stroke-width:1.81050575"
         inkscape:connector-curvature="0" />
      <path
         id="path9805"
         transform="translate(276,0)"
         d=""
         style="fill:none;stroke:#0000ff;stroke-width:1.81050575"
         inkscape:connector-curvature="0" />
      <path
         id="path9807"
         transform="translate(295,0)"
         d="m -2,-12 -2,1 -2,2 -1,2 -1,3 0,5 1,3 1,2 2,2 2,1 L 2,9 4,8 6,6 7,4 8,1 8,-4 7,-7 6,-9 l -2,-2 -2,-1 -4,0"
         style="fill:none;stroke:#0000ff;stroke-width:1.81050575"
         inkscape:connector-curvature="0" />
      <path
         id="path9809"
         transform="translate(316,0)"
         d="m 8,-7 -1,-2 -2,-2 -2,-1 -4,0 -2,1 -2,2 -1,2 -1,3 0,5 1,3 1,2 2,2 2,1 L 3,9 5,8 7,6 8,4 8,1 M 3,1 8,1"
         style="fill:none;stroke:#0000ff;stroke-width:1.81050575"
         inkscape:connector-curvature="0" />
      <path
         id="path9811"
         transform="translate(338,0)"
         d="M -7,-12 -7,9 M -7,-12 7,9 M 7,-12 7,9"
         style="fill:none;stroke:#0000ff;stroke-width:1.81050575"
         inkscape:connector-curvature="0" />
      <path
         id="path9813"
         transform="translate(353,0)"
         d="M 0,-12 0,9"
         style="fill:none;stroke:#0000ff;stroke-width:1.81050575"
         inkscape:connector-curvature="0" />
      <path
         id="path9815"
         transform="translate(365,0)"
         d="M 0,-12 0,9 m -7,-21 14,0"
         style="fill:none;stroke:#0000ff;stroke-width:1.81050575"
         inkscape:connector-curvature="0" />
      <path
         id="path9817"
         transform="translate(383,0)"
         d="m -6,-12 0,21 m 0,-21 13,0 M -6,-2 2,-2 M -6,9 7,9"
         style="fill:none;stroke:#0000ff;stroke-width:1.81050575"
         inkscape:connector-curvature="0" />
      <path
         id="path9819"
         transform="translate(396,0)"
         d="M 0,4 -1,5 0,6 1,5 0,4"
         style="fill:none;stroke:#0000ff;stroke-width:1.81050575"
         inkscape:connector-curvature="0" />
      <path
         id="path9821"
         transform="translate(410,0)"
         d="m 8,-7 -1,-2 -2,-2 -2,-1 -4,0 -2,1 -2,2 -1,2 -1,3 0,5 1,3 1,2 2,2 2,1 L 3,9 5,8 7,6 8,4"
         style="fill:none;stroke:#0000ff;stroke-width:1.81050575"
         inkscape:connector-curvature="0" />
      <path
         id="path9823"
         transform="translate(432,0)"
         d="m -2,-12 -2,1 -2,2 -1,2 -1,3 0,5 1,3 1,2 2,2 2,1 L 2,9 4,8 6,6 7,4 8,1 8,-4 7,-7 6,-9 l -2,-2 -2,-1 -4,0"
         style="fill:none;stroke:#0000ff;stroke-width:1.81050575"
         inkscape:connector-curvature="0" />
      <path
         id="path9825"
         transform="translate(455,0)"
         d="M -8,-12 -8,9 M -8,-12 0,9 M 8,-12 0,9 M 8,-12 8,9"
         style="fill:none;stroke:#0000ff;stroke-width:1.81050575"
         inkscape:connector-curvature="0" />
    </g>
  </g>
</svg>
