<?xml version="1.0" encoding="UTF-8" standalone="no"?>
<!-- Created with Inkscape (http://www.inkscape.org/) -->

<svg
   xmlns:dc="http://purl.org/dc/elements/1.1/"
   xmlns:cc="http://creativecommons.org/ns#"
   xmlns:rdf="http://www.w3.org/1999/02/22-rdf-syntax-ns#"
   xmlns:svg="http://www.w3.org/2000/svg"
   xmlns="http://www.w3.org/2000/svg"
   xmlns:sodipodi="http://sodipodi.sourceforge.net/DTD/sodipodi-0.dtd"
   xmlns:inkscape="http://www.inkscape.org/namespaces/inkscape"
   width="1080"
   height="1080"
   id="svg4687"
   version="1.1"
   inkscape:version="0.48.4 r9939"
   sodipodi:docname="inner box.svg">
  <defs
     id="defs4689" />
  <sodipodi:namedview
     id="base"
     pagecolor="#ffffff"
     bordercolor="#666666"
     borderopacity="1.0"
     inkscape:pageopacity="0.0"
     inkscape:pageshadow="2"
     inkscape:zoom="2.7466446"
     inkscape:cx="199.28186"
     inkscape:cy="953.11197"
     inkscape:document-units="in"
     inkscape:current-layer="layer1"
     showgrid="false"
     units="in"
     inkscape:window-width="1366"
     inkscape:window-height="705"
     inkscape:window-x="-8"
     inkscape:window-y="-8"
     inkscape:window-maximized="1" />
  <metadata
     id="metadata4692">
    <rdf:RDF>
      <cc:Work
         rdf:about="">
        <dc:format>image/svg+xml</dc:format>
        <dc:type
           rdf:resource="http://purl.org/dc/dcmitype/StillImage" />
        <dc:title></dc:title>
      </cc:Work>
    </rdf:RDF>
  </metadata>
  <g
     inkscape:label="Layer 1"
     inkscape:groupmode="layer"
     id="layer1"
     transform="translate(0,27.639592)">
    <flowRoot
       transform="translate(-61.163645,-527.5669)"
       style="font-size:40px;font-style:normal;font-weight:normal;line-height:125%;letter-spacing:0px;word-spacing:0px;fill:#000000;fill-opacity:1;stroke:#008000;font-family:Sans"
       id="flowRoot20365"
       xml:space="preserve"><flowRegion
         id="flowRegion20367"><rect
           style="stroke:#008000"
           y="582.6275"
           x="237.07268"
           height="72.040688"
           width="108.42859"
           id="rect20369" /></flowRegion><flowPara
         id="flowPara20371">OGNITE</flowPara></flowRoot>    <g
       id="g5230"
       inkscape:tile-cx="184.23166"
       inkscape:tile-cy="116.46332"
       inkscape:tile-w="328.70929"
       inkscape:tile-h="187.59375"
       inkscape:tile-x0="19.87702"
       inkscape:tile-y0="22.666444"
       transform="translate(15.050193,10.42471)">
      <path
         sodipodi:nodetypes="ccccccccccccccccccccccccccccccccccccccccccccccccc"
         inkscape:connector-curvature="0"
         id="path33680"
         d="m 348.58631,138.3081 0,-21.5 -5.65625,0 -0.095,-55.812497 5.7512,0 0,-21.500001 -5.65625,0 0,-6.65625 -38,0 -38,0 0,-1.8125 48,0 0,-32.8125 -48.125,0 0,-3.1875 -163.4999,0 0,3.1875 -60.6875,0 0,32.8125 60,0 0,1.8125 -38,0 -38,0 0,6.65625 -6.74059,0 0.34375,21.500001 6.39684,0 0,55.812497 -6.42809,0 0.34375,21.5 6.08434,0 0,6.53125 38,0 38,0 0,1.78125 -48,0 0,32.8125 48.71875,0 0,3.1875 163.46875,0 0,-3.1875 60.125,0 0,-32.8125 -60,0 0,-1.78125 38,0 38,0 -0.095,-6.53125 z"
         style="fill:none;stroke:#008000;stroke-width:1px;stroke-linecap:butt;stroke-linejoin:miter;stroke-opacity:1" />
      <path
         style="fill:none;stroke:#ffff00;stroke-width:1px;stroke-linecap:butt;stroke-linejoin:miter;stroke-opacity:1"
         d="m 303.88273,32.997252 0,111.676408"
         id="path20217"
         inkscape:connector-curvature="0"
         sodipodi:nodetypes="cc" />
      <path
         style="fill:none;stroke:#ffff00;stroke-width:1px;stroke-linecap:butt;stroke-linejoin:miter;stroke-opacity:1"
         d="m 306.36762,32.732132 0,112.206638"
         id="path20219"
         inkscape:connector-curvature="0"
         sodipodi:nodetypes="cc" />
      <path
         inkscape:connector-curvature="0"
         id="path20247"
         d="m 65.66619,32.997252 0,111.676408"
         style="fill:none;stroke:#ffff00;stroke-width:1px;stroke-linecap:butt;stroke-linejoin:miter;stroke-opacity:1"
         sodipodi:nodetypes="cc" />
      <path
         inkscape:connector-curvature="0"
         id="path20249"
         d="m 63.1813,32.732132 0,112.206638"
         style="fill:none;stroke:#ffff00;stroke-width:1px;stroke-linecap:butt;stroke-linejoin:miter;stroke-opacity:1"
         sodipodi:nodetypes="cc" />
      <path
         style="fill:none;stroke:#ffff00;stroke-width:0.99999994px;stroke-linecap:butt;stroke-linejoin:miter;stroke-opacity:1"
         d="m 102.39324,147.20977 0,31.66992"
         id="path20260"
         inkscape:connector-curvature="0"
         sodipodi:nodetypes="cc" />
      <path
         inkscape:connector-curvature="0"
         id="path20268"
         d="m 267.89445,147.21074 0,31.73802"
         style="fill:none;stroke:#ffff00;stroke-width:1px;stroke-linecap:butt;stroke-linejoin:miter;stroke-opacity:1"
         sodipodi:nodetypes="cc" />
      <path
         inkscape:connector-curvature="0"
         id="path20262"
         d="m 102.50565,30.386522 0,-31.93733"
         style="fill:none;stroke:#ffff00;stroke-width:1px;stroke-linecap:butt;stroke-linejoin:miter;stroke-opacity:1"
         sodipodi:nodetypes="cc" />
      <path
         style="fill:none;stroke:#ffff00;stroke-width:0.99999994px;stroke-linecap:butt;stroke-linejoin:miter;stroke-opacity:1"
         d="m 267.69285,30.850592 0,-32.14555"
         id="path20270"
         inkscape:connector-curvature="0"
         sodipodi:nodetypes="cc" />
      <path
         style="fill:none;stroke:#ffff00;stroke-width:1px;stroke-linecap:butt;stroke-linejoin:miter;stroke-opacity:1"
         d="m 267.01861,32.933552 -163.6831,0"
         id="path20293"
         inkscape:connector-curvature="0"
         sodipodi:nodetypes="cc" />
      <path
         style="fill:none;stroke:#ffff00;stroke-width:1px;stroke-linecap:butt;stroke-linejoin:miter;stroke-opacity:1"
         d="m 102.9637,144.26489 163.57067,0"
         id="path20295"
         inkscape:connector-curvature="0"
         sodipodi:nodetypes="cc" />
      <g
         id="g6904"
         transform="matrix(0.66921779,0,0,0.66921779,122.97526,164.08309)"
         inkscape:label="Hershey Text"
         style="stroke:#0000ff">
        <path
           id="path6906"
           transform="translate(11,0)"
           d="m -2,-12 -2,1 -2,2 -1,2 -1,3 0,5 1,3 1,2 2,2 2,1 L 2,9 4,8 6,6 7,4 8,1 8,-4 7,-7 6,-9 l -2,-2 -2,-1 -4,0"
           style="fill:none;stroke:#0000ff;stroke-width:1.49428189"
           inkscape:connector-curvature="0" />
        <path
           id="path6908"
           transform="translate(32,0)"
           d="m 8,-7 -1,-2 -2,-2 -2,-1 -4,0 -2,1 -2,2 -1,2 -1,3 0,5 1,3 1,2 2,2 2,1 L 3,9 5,8 7,6 8,4 8,1 M 3,1 8,1"
           style="fill:none;stroke:#0000ff;stroke-width:1.49428189"
           inkscape:connector-curvature="0" />
        <path
           id="path6910"
           transform="translate(54,0)"
           d="M -7,-12 -7,9 M -7,-12 7,9 M 7,-12 7,9"
           style="fill:none;stroke:#0000ff;stroke-width:1.49428189"
           inkscape:connector-curvature="0" />
        <path
           id="path6912"
           transform="translate(69,0)"
           d="M 0,-12 0,9"
           style="fill:none;stroke:#0000ff;stroke-width:1.49428189"
           inkscape:connector-curvature="0" />
        <path
           id="path6914"
           transform="translate(81,0)"
           d="M 0,-12 0,9 m -7,-21 14,0"
           style="fill:none;stroke:#0000ff;stroke-width:1.49428189"
           inkscape:connector-curvature="0" />
        <path
           id="path6916"
           transform="translate(99,0)"
           d="m -6,-12 0,21 m 0,-21 13,0 M -6,-2 2,-2 M -6,9 7,9"
           style="fill:none;stroke:#0000ff;stroke-width:1.49428189"
           inkscape:connector-curvature="0" />
        <path
           id="path6918"
           transform="translate(112,0)"
           d="M 0,4 -1,5 0,6 1,5 0,4"
           style="fill:none;stroke:#0000ff;stroke-width:1.49428189"
           inkscape:connector-curvature="0" />
        <path
           id="path6920"
           transform="translate(126,0)"
           d="m 8,-7 -1,-2 -2,-2 -2,-1 -4,0 -2,1 -2,2 -1,2 -1,3 0,5 1,3 1,2 2,2 2,1 L 3,9 5,8 7,6 8,4"
           style="fill:none;stroke:#0000ff;stroke-width:1.49428189"
           inkscape:connector-curvature="0" />
        <path
           id="path6922"
           transform="translate(148,0)"
           d="m -2,-12 -2,1 -2,2 -1,2 -1,3 0,5 1,3 1,2 2,2 2,1 L 2,9 4,8 6,6 7,4 8,1 8,-4 7,-7 6,-9 l -2,-2 -2,-1 -4,0"
           style="fill:none;stroke:#0000ff;stroke-width:1.49428189"
           inkscape:connector-curvature="0" />
        <path
           id="path6924"
           transform="translate(171,0)"
           d="M -8,-12 -8,9 M -8,-12 0,9 M 8,-12 0,9 M 8,-12 8,9"
           style="fill:none;stroke:#0000ff;stroke-width:1.49428189"
           inkscape:connector-curvature="0" />
      </g>
      <g
         inkscape:label="Hershey Text"
         transform="matrix(-0.66921779,0,0,-0.66921779,244.72831,13.646072)"
         id="g7025"
         style="stroke:#0000ff">
        <path
           inkscape:connector-curvature="0"
           style="fill:none;stroke:#0000ff;stroke-width:1.49428189"
           d="m -2,-12 -2,1 -2,2 -1,2 -1,3 0,5 1,3 1,2 2,2 2,1 L 2,9 4,8 6,6 7,4 8,1 8,-4 7,-7 6,-9 l -2,-2 -2,-1 -4,0"
           transform="translate(11,0)"
           id="path7027" />
        <path
           inkscape:connector-curvature="0"
           style="fill:none;stroke:#0000ff;stroke-width:1.49428189"
           d="m 8,-7 -1,-2 -2,-2 -2,-1 -4,0 -2,1 -2,2 -1,2 -1,3 0,5 1,3 1,2 2,2 2,1 L 3,9 5,8 7,6 8,4 8,1 M 3,1 8,1"
           transform="translate(32,0)"
           id="path7029" />
        <path
           inkscape:connector-curvature="0"
           style="fill:none;stroke:#0000ff;stroke-width:1.49428189"
           d="M -7,-12 -7,9 M -7,-12 7,9 M 7,-12 7,9"
           transform="translate(54,0)"
           id="path7031" />
        <path
           inkscape:connector-curvature="0"
           style="fill:none;stroke:#0000ff;stroke-width:1.49428189"
           d="M 0,-12 0,9"
           transform="translate(69,0)"
           id="path7033" />
        <path
           inkscape:connector-curvature="0"
           style="fill:none;stroke:#0000ff;stroke-width:1.49428189"
           d="M 0,-12 0,9 m -7,-21 14,0"
           transform="translate(81,0)"
           id="path7035" />
        <path
           inkscape:connector-curvature="0"
           style="fill:none;stroke:#0000ff;stroke-width:1.49428189"
           d="m -6,-12 0,21 m 0,-21 13,0 M -6,-2 2,-2 M -6,9 7,9"
           transform="translate(99,0)"
           id="path7037" />
        <path
           inkscape:connector-curvature="0"
           style="fill:none;stroke:#0000ff;stroke-width:1.49428189"
           d="M 0,4 -1,5 0,6 1,5 0,4"
           transform="translate(112,0)"
           id="path7039" />
        <path
           inkscape:connector-curvature="0"
           style="fill:none;stroke:#0000ff;stroke-width:1.49428189"
           d="m 8,-7 -1,-2 -2,-2 -2,-1 -4,0 -2,1 -2,2 -1,2 -1,3 0,5 1,3 1,2 2,2 2,1 L 3,9 5,8 7,6 8,4"
           transform="translate(126,0)"
           id="path7041" />
        <path
           inkscape:connector-curvature="0"
           style="fill:none;stroke:#0000ff;stroke-width:1.49428189"
           d="m -2,-12 -2,1 -2,2 -1,2 -1,3 0,5 1,3 1,2 2,2 2,1 L 2,9 4,8 6,6 7,4 8,1 8,-4 7,-7 6,-9 l -2,-2 -2,-1 -4,0"
           transform="translate(148,0)"
           id="path7043" />
        <path
           inkscape:connector-curvature="0"
           style="fill:none;stroke:#0000ff;stroke-width:1.49428189"
           d="M -8,-12 -8,9 M -8,-12 0,9 M 8,-12 0,9 M 8,-12 8,9"
           transform="translate(171,0)"
           id="path7045" />
      </g>
      <path
         transform="matrix(0.30805454,0,0,0.30805454,43.63559,-127.97534)"
         d="m 225.60292,578.54346 c 0,1.45218 -1.17723,2.6294 -2.62941,2.6294 -1.45218,0 -2.6294,-1.17722 -2.6294,-2.6294 0,-1.45218 1.17722,-2.62941 2.6294,-2.62941 1.45218,0 2.62941,1.17723 2.62941,2.62941 z"
         sodipodi:ry="2.6294045"
         sodipodi:rx="2.6294045"
         sodipodi:cy="578.54346"
         sodipodi:cx="222.97351"
         id="path4111"
         style="fill:none;stroke:#ff0000;stroke-width:0.58431214;stroke-linecap:butt;stroke-linejoin:miter;stroke-miterlimit:4;stroke-opacity:1;stroke-dasharray:none;stroke-dashoffset:0.018"
         sodipodi:type="arc" />
      <path
         transform="matrix(-0.30805454,0,0,-0.30805454,326.71853,305.79122)"
         d="m 225.60292,578.54346 c 0,1.45218 -1.17723,2.6294 -2.62941,2.6294 -1.45218,0 -2.6294,-1.17722 -2.6294,-2.6294 0,-1.45218 1.17722,-2.62941 2.6294,-2.62941 1.45218,0 2.62941,1.17723 2.62941,2.62941 z"
         sodipodi:ry="2.6294045"
         sodipodi:rx="2.6294045"
         sodipodi:cy="578.54346"
         sodipodi:cx="222.97351"
         id="path4129"
         style="fill:none;stroke:#ff0000;stroke-width:0.58431214;stroke-linecap:butt;stroke-linejoin:miter;stroke-miterlimit:4;stroke-opacity:1;stroke-dasharray:none;stroke-dashoffset:0.018"
         sodipodi:type="arc" />
      <path
         sodipodi:nodetypes="ccccccc"
         inkscape:connector-curvature="0"
         id="path4214"
         d="m 268.84433,32.644742 0,5.04809 m 0,24.746471 0,50.995757 m 0,26.85789 0,4.40219 0.003,0"
         style="fill:none;stroke:#ffff00;stroke-width:0.18000001;stroke-linecap:butt;stroke-linejoin:miter;stroke-miterlimit:4;stroke-opacity:1;stroke-dasharray:none" />
      <path
         sodipodi:nodetypes="ccccc"
         inkscape:connector-curvature="0"
         id="rect4220"
         d="m 268.84738,140.49046 -7.45462,0 0,-26.8579 7.45462,0 z"
         style="fill:none;stroke:#008000;stroke-width:0.18000001;stroke-linecap:butt;stroke-linejoin:miter;stroke-miterlimit:4;stroke-opacity:1;stroke-dashoffset:0.018" />
      <path
         style="fill:none;stroke:#008000;stroke-width:0.18000001;stroke-linecap:butt;stroke-linejoin:miter;stroke-miterlimit:4;stroke-opacity:1;stroke-dashoffset:0.018"
         d="m 268.84738,37.688412 -7.45462,0 0,24.770031 7.45462,0 z"
         id="path4231"
         inkscape:connector-curvature="0"
         sodipodi:nodetypes="ccccc" />
      <path
         style="fill:none;stroke:#ffff00;stroke-width:0.18000001;stroke-linecap:butt;stroke-linejoin:miter;stroke-miterlimit:4;stroke-opacity:1;stroke-dasharray:none"
         d="m 101.39581,32.644742 0,5.04809 m 0,24.746471 0,50.995757 m 0,26.85789 0,4.40219 -0.003,0"
         id="path4333"
         inkscape:connector-curvature="0"
         sodipodi:nodetypes="ccccccc" />
      <path
         style="fill:none;stroke:#008000;stroke-width:0.18000001;stroke-linecap:butt;stroke-linejoin:miter;stroke-miterlimit:4;stroke-opacity:1;stroke-dashoffset:0.018"
         d="m 101.39276,140.49046 7.45462,0 0,-26.8579 -7.45462,0 z"
         id="path4335"
         inkscape:connector-curvature="0"
         sodipodi:nodetypes="ccccc" />
      <path
         sodipodi:nodetypes="ccccc"
         inkscape:connector-curvature="0"
         id="path4337"
         d="m 101.39276,37.688412 7.45462,0 0,24.770031 -7.45462,0 z"
         style="fill:none;stroke:#008000;stroke-width:0.18000001;stroke-linecap:butt;stroke-linejoin:miter;stroke-miterlimit:4;stroke-opacity:1;stroke-dashoffset:0.018" />
    </g>
  </g>
  <g
     inkscape:groupmode="layer"
     id="layer3"
     inkscape:label="master" />
</svg>
